<svg width="4" height="15" viewBox="0 0 4 15" fill="none" xmlns="http://www.w3.org/2000/svg">
<path d="M2.19995 10.6504C1.73582 10.6504 1.2907 10.8348 0.962514 11.163C0.634326 11.4911 0.449951 11.9363 0.449951 12.4004C0.449951 12.8645 0.634326 13.3096 0.962514 13.6378C1.2907 13.966 1.73582 14.1504 2.19995 14.1504C2.66408 14.1504 3.1092 13.966 3.43739 13.6378C3.76558 13.3096 3.94995 12.8645 3.94995 12.4004C3.94995 11.9363 3.76558 11.4911 3.43739 11.163C3.1092 10.8348 2.66408 10.6504 2.19995 10.6504ZM2.19995 5.65039C1.73582 5.65039 1.2907 5.83477 0.962514 6.16295C0.634326 6.49114 0.449951 6.93626 0.449951 7.40039C0.449951 7.86452 0.634326 8.30964 0.962514 8.63783C1.2907 8.96602 1.73582 9.15039 2.19995 9.15039C2.66408 9.15039 3.1092 8.96602 3.43739 8.63783C3.76558 8.30964 3.94995 7.86452 3.94995 7.40039C3.94995 6.93626 3.76558 6.49114 3.43739 6.16295C3.1092 5.83477 2.66408 5.65039 2.19995 5.65039ZM3.94995 2.40039C3.94995 1.93626 3.76558 1.49114 3.43739 1.16295C3.1092 0.834765 2.66408 0.650391 2.19995 0.650391C1.73582 0.650391 1.2907 0.834765 0.962514 1.16295C0.634326 1.49114 0.449951 1.93626 0.449951 2.40039C0.449951 2.86452 0.634326 3.30964 0.962514 3.63783C1.2907 3.96602 1.73582 4.15039 2.19995 4.15039C2.66408 4.15039 3.1092 3.96602 3.43739 3.63783C3.76558 3.30964 3.94995 2.86452 3.94995 2.40039Z" fill="#9CA3AF"/>
</svg>
