<svg width="16" height="15" viewBox="0 0 16 15" fill="none" xmlns="http://www.w3.org/2000/svg">
<path d="M14 2.09961C14.275 2.09961 14.5 2.32461 14.5 2.59961V12.5934L14.3438 12.3902L10.0938 6.89023C9.95312 6.70586 9.73125 6.59961 9.5 6.59961C9.26875 6.59961 9.05 6.70586 8.90625 6.89023L6.3125 10.2465L5.35938 8.91211C5.21875 8.71523 4.99375 8.59961 4.75 8.59961C4.50625 8.59961 4.28125 8.71523 4.14062 8.91523L1.64062 12.4152L1.5 12.609V12.5996V2.59961C1.5 2.32461 1.725 2.09961 2 2.09961H14ZM2 0.599609C0.896875 0.599609 0 1.49648 0 2.59961V12.5996C0 13.7027 0.896875 14.5996 2 14.5996H14C15.1031 14.5996 16 13.7027 16 12.5996V2.59961C16 1.49648 15.1031 0.599609 14 0.599609H2ZM4.5 6.59961C4.69698 6.59961 4.89204 6.56081 5.07403 6.48543C5.25601 6.41005 5.42137 6.29956 5.56066 6.16027C5.69995 6.02098 5.81044 5.85562 5.88582 5.67363C5.9612 5.49165 6 5.29659 6 5.09961C6 4.90263 5.9612 4.70757 5.88582 4.52558C5.81044 4.3436 5.69995 4.17824 5.56066 4.03895C5.42137 3.89966 5.25601 3.78917 5.07403 3.71379C4.89204 3.63841 4.69698 3.59961 4.5 3.59961C4.30302 3.59961 4.10796 3.63841 3.92597 3.71379C3.74399 3.78917 3.57863 3.89966 3.43934 4.03895C3.30005 4.17824 3.18956 4.3436 3.11418 4.52558C3.0388 4.70757 3 4.90263 3 5.09961C3 5.29659 3.0388 5.49165 3.11418 5.67363C3.18956 5.85562 3.30005 6.02098 3.43934 6.16027C3.57863 6.29956 3.74399 6.41005 3.92597 6.48543C4.10796 6.56081 4.30302 6.59961 4.5 6.59961Z" fill="#6B7280"/>
</svg>
