<svg width="20" height="17" viewBox="0 0 20 17" fill="none" xmlns="http://www.w3.org/2000/svg">
<path d="M3 4.5C3 3.43913 3.42143 2.42172 4.17157 1.67157C4.92172 0.921427 5.93913 0.5 7 0.5C8.06087 0.5 9.07828 0.921427 9.82843 1.67157C10.5786 2.42172 11 3.43913 11 4.5C11 5.56087 10.5786 6.57828 9.82843 7.32843C9.07828 8.07857 8.06087 8.5 7 8.5C5.93913 8.5 4.92172 8.07857 4.17157 7.32843C3.42143 6.57828 3 5.56087 3 4.5ZM0 15.5719C0 12.4937 2.49375 10 5.57188 10H8.42813C11.5063 10 14 12.4937 14 15.5719C14 16.0844 13.5844 16.5 13.0719 16.5H0.928125C0.415625 16.5 0 16.0844 0 15.5719ZM15.75 10.25V8.25H13.75C13.3344 8.25 13 7.91563 13 7.5C13 7.08437 13.3344 6.75 13.75 6.75H15.75V4.75C15.75 4.33437 16.0844 4 16.5 4C16.9156 4 17.25 4.33437 17.25 4.75V6.75H19.25C19.6656 6.75 20 7.08437 20 7.5C20 7.91563 19.6656 8.25 19.25 8.25H17.25V10.25C17.25 10.6656 16.9156 11 16.5 11C16.0844 11 15.75 10.6656 15.75 10.25Z" fill="white"/>
</svg>
