<svg width="16" height="17" viewBox="0 0 16 17" fill="none" xmlns="http://www.w3.org/2000/svg">
<path d="M14.5 8.59961C14.5 6.8757 13.8152 5.2224 12.5962 4.00342C11.3772 2.78443 9.72391 2.09961 8 2.09961C6.27609 2.09961 4.62279 2.78443 3.40381 4.00342C2.18482 5.2224 1.5 6.8757 1.5 8.59961C1.5 10.3235 2.18482 11.9768 3.40381 13.1958C4.62279 14.4148 6.27609 15.0996 8 15.0996C9.72391 15.0996 11.3772 14.4148 12.5962 13.1958C13.8152 11.9768 14.5 10.3235 14.5 8.59961ZM0 8.59961C0 6.47788 0.842855 4.44305 2.34315 2.94276C3.84344 1.44246 5.87827 0.599609 8 0.599609C10.1217 0.599609 12.1566 1.44246 13.6569 2.94276C15.1571 4.44305 16 6.47788 16 8.59961C16 10.7213 15.1571 12.7562 13.6569 14.2565C12.1566 15.7568 10.1217 16.5996 8 16.5996C5.87827 16.5996 3.84344 15.7568 2.34315 14.2565C0.842855 12.7562 0 10.7213 0 8.59961ZM5.55 10.5402C6.025 11.0527 6.8375 11.5996 8 11.5996C9.1625 11.5996 9.975 11.0527 10.45 10.5402C10.7312 10.2371 11.2062 10.2152 11.5094 10.4965C11.8125 10.7777 11.8344 11.2527 11.5531 11.5559C10.8656 12.2996 9.67813 13.0996 8.00313 13.0996C6.32812 13.0996 5.1375 12.3027 4.45312 11.5559C4.17188 11.2527 4.19062 10.7777 4.49687 10.4965C4.80312 10.2152 5.275 10.234 5.55625 10.5402H5.55ZM4.5125 7.09961C4.5125 6.83439 4.61786 6.58004 4.80539 6.3925C4.99293 6.20497 5.24728 6.09961 5.5125 6.09961C5.77772 6.09961 6.03207 6.20497 6.21961 6.3925C6.40714 6.58004 6.5125 6.83439 6.5125 7.09961C6.5125 7.36483 6.40714 7.61918 6.21961 7.80672C6.03207 7.99425 5.77772 8.09961 5.5125 8.09961C5.24728 8.09961 4.99293 7.99425 4.80539 7.80672C4.61786 7.61918 4.5125 7.36483 4.5125 7.09961ZM10.5125 6.09961C10.7777 6.09961 11.0321 6.20497 11.2196 6.3925C11.4071 6.58004 11.5125 6.83439 11.5125 7.09961C11.5125 7.36483 11.4071 7.61918 11.2196 7.80672C11.0321 7.99425 10.7777 8.09961 10.5125 8.09961C10.2473 8.09961 9.99293 7.99425 9.80539 7.80672C9.61786 7.61918 9.5125 7.36483 9.5125 7.09961C9.5125 6.83439 9.61786 6.58004 9.80539 6.3925C9.99293 6.20497 10.2473 6.09961 10.5125 6.09961Z" fill="#6B7280"/>
</svg>
