<svg width="48" height="49" viewBox="0 0 48 49" fill="none" xmlns="http://www.w3.org/2000/svg">
<g clip-path="url(#clip0_2261_527)">
<rect y="0.400391" width="48" height="48" rx="24" fill="#F3F4F6"/>
<path d="M48 42.3864V48.4004H0V42.4084C2.7919 38.6773 6.41581 35.6491 10.5836 33.5645C14.7513 31.48 19.348 30.3965 24.008 30.4004C33.816 30.4004 42.528 35.1084 48 42.3864ZM32.004 18.3984C32.004 20.5202 31.1611 22.555 29.6609 24.0553C28.1606 25.5556 26.1257 26.3984 24.004 26.3984C21.8823 26.3984 19.8474 25.5556 18.3471 24.0553C16.8469 22.555 16.004 20.5202 16.004 18.3984C16.004 16.2767 16.8469 14.2419 18.3471 12.7416C19.8474 11.2413 21.8823 10.3984 24.004 10.3984C26.1257 10.3984 28.1606 11.2413 29.6609 12.7416C31.1611 14.2419 32.004 16.2767 32.004 18.3984Z" fill="#D1D5DB"/>
</g>
<defs>
<clipPath id="clip0_2261_527">
<rect y="0.400391" width="48" height="48" rx="24" fill="white"/>
</clipPath>
</defs>
</svg>
