<svg width="14" height="17" viewBox="0 0 14 17" fill="none" xmlns="http://www.w3.org/2000/svg">
<path d="M7 8.19922C5.93913 8.19922 4.92172 7.77779 4.17157 7.02765C3.42143 6.2775 3 5.26008 3 4.19922C3 3.13835 3.42143 2.12094 4.17157 1.37079C4.92172 0.620646 5.93913 0.199219 7 0.199219C8.06087 0.199219 9.07828 0.620646 9.82843 1.37079C10.5786 2.12094 11 3.13835 11 4.19922C11 5.26008 10.5786 6.2775 9.82843 7.02765C9.07828 7.77779 8.06087 8.19922 7 8.19922ZM6.53438 11.4242L5.95312 10.4555C5.75313 10.1211 5.99375 9.69922 6.38125 9.69922H7H7.61562C8.00313 9.69922 8.24375 10.1242 8.04375 10.4555L7.4625 11.4242L8.50625 15.2961L9.63125 10.7055C9.69375 10.4523 9.9375 10.2867 10.1906 10.3523C12.3813 10.9023 14 12.8836 14 15.2398C14 15.7711 13.5687 16.1992 13.0406 16.1992H8.92188C8.85625 16.1992 8.79688 16.1867 8.74063 16.1648L8.75 16.1992H5.25L5.25938 16.1648C5.20312 16.1867 5.14062 16.1992 5.07812 16.1992H0.959375C0.43125 16.1992 0 15.768 0 15.2398C0 12.8805 1.62188 10.8992 3.80938 10.3523C4.0625 10.2898 4.30625 10.4555 4.36875 10.7055L5.49375 15.2961L6.5375 11.4242H6.53438Z" fill="#9CA3AF"/>
</svg>
