<svg width="14" height="15" viewBox="0 0 14 15" fill="none" xmlns="http://www.w3.org/2000/svg">
<path d="M4.9563 1.40625C4.9563 1.04258 4.66372 0.75 4.30005 0.75C3.93638 0.75 3.6438 1.04258 3.6438 1.40625V2.5H2.55005C1.58481 2.5 0.800049 3.28477 0.800049 4.25V4.6875V6V13C0.800049 13.9652 1.58481 14.75 2.55005 14.75H11.3C12.2653 14.75 13.05 13.9652 13.05 13V6V4.6875V4.25C13.05 3.28477 12.2653 2.5 11.3 2.5H10.2063V1.40625C10.2063 1.04258 9.91372 0.75 9.55005 0.75C9.18638 0.75 8.8938 1.04258 8.8938 1.40625V2.5H4.9563V1.40625ZM2.11255 6H11.7375V13C11.7375 13.2406 11.5407 13.4375 11.3 13.4375H2.55005C2.30942 13.4375 2.11255 13.2406 2.11255 13V6Z" fill="#6B7280"/>
</svg>
