<svg width="15" height="17" viewBox="0 0 15 17" fill="none" xmlns="http://www.w3.org/2000/svg">
<path d="M5.5498 1.15039C5.5498 0.734766 5.21543 0.400391 4.7998 0.400391C4.38418 0.400391 4.0498 0.734766 4.0498 1.15039V2.40039H2.7998C1.69668 2.40039 0.799805 3.29727 0.799805 4.40039V4.90039V6.40039V14.4004C0.799805 15.5035 1.69668 16.4004 2.7998 16.4004H12.7998C13.9029 16.4004 14.7998 15.5035 14.7998 14.4004V6.40039V4.90039V4.40039C14.7998 3.29727 13.9029 2.40039 12.7998 2.40039H11.5498V1.15039C11.5498 0.734766 11.2154 0.400391 10.7998 0.400391C10.3842 0.400391 10.0498 0.734766 10.0498 1.15039V2.40039H5.5498V1.15039ZM2.2998 6.40039H13.2998V14.4004C13.2998 14.6754 13.0748 14.9004 12.7998 14.9004H2.7998C2.5248 14.9004 2.2998 14.6754 2.2998 14.4004V6.40039Z" fill="#60A5FA"/>
</svg>
