<svg width="16" height="17" viewBox="0 0 16 17" fill="none" xmlns="http://www.w3.org/2000/svg">
<path d="M8.75 0.801486C12.7531 0.801486 16 4.04836 16 8.05149C16 8.46711 15.6656 8.80149 15.25 8.80149C14.8344 8.80149 14.5 8.46711 14.5 8.05149C14.5 4.87649 11.925 2.30149 8.75 2.30149C8.33438 2.30149 8 1.96711 8 1.55149C8 1.13586 8.33438 0.801486 8.75 0.801486ZM9 6.80149C9.26522 6.80149 9.51957 6.90684 9.70711 7.09438C9.89464 7.28192 10 7.53627 10 7.80149C10 8.0667 9.89464 8.32106 9.70711 8.50859C9.51957 8.69613 9.26522 8.80149 9 8.80149C8.73478 8.80149 8.48043 8.69613 8.29289 8.50859C8.10536 8.32106 8 8.0667 8 7.80149C8 7.53627 8.10536 7.28192 8.29289 7.09438C8.48043 6.90684 8.73478 6.80149 9 6.80149ZM8 4.55149C8 4.13586 8.33438 3.80149 8.75 3.80149C11.0969 3.80149 13 5.70461 13 8.05149C13 8.46711 12.6656 8.80149 12.25 8.80149C11.8344 8.80149 11.5 8.46711 11.5 8.05149C11.5 6.53274 10.2688 5.30149 8.75 5.30149C8.33438 5.30149 8 4.96711 8 4.55149ZM3.67188 0.845236C4.27812 0.679611 4.9125 0.988986 5.15312 1.57024L6.40312 4.57024C6.61562 5.07961 6.46875 5.67024 6.04063 6.01711L4.5 7.27961C5.54063 9.47961 7.32188 11.2609 9.52188 12.3015L10.7812 10.7609C11.1313 10.3327 11.7188 10.1859 12.2281 10.3984L15.2281 11.6484C15.8094 11.889 16.1187 12.5234 15.9531 13.1296L15.2031 15.8796C15.0562 16.4234 14.5625 16.8015 14 16.8015C6.26875 16.8015 0 10.5327 0 2.80149C0 2.23899 0.378125 1.74524 0.921875 1.59524L3.67188 0.845236Z" fill="#9CA3AF"/>
</svg>
