<svg width="16" height="21" viewBox="0 0 16 21" fill="none" xmlns="http://www.w3.org/2000/svg">
<path d="M8 0.300781C6.36719 0.300781 4.97656 1.34375 4.46484 2.80078H3C1.62109 2.80078 0.5 3.92188 0.5 5.30078V17.8008C0.5 19.1797 1.62109 20.3008 3 20.3008H13C14.3789 20.3008 15.5 19.1797 15.5 17.8008V5.30078C15.5 3.92188 14.3789 2.80078 13 2.80078H11.5352C11.0234 1.34375 9.63281 0.300781 8 0.300781ZM8 2.80078C8.33152 2.80078 8.64946 2.93248 8.88388 3.1669C9.1183 3.40132 9.25 3.71926 9.25 4.05078C9.25 4.3823 9.1183 4.70024 8.88388 4.93466C8.64946 5.16909 8.33152 5.30078 8 5.30078C7.66848 5.30078 7.35054 5.16909 7.11612 4.93466C6.8817 4.70024 6.75 4.3823 6.75 4.05078C6.75 3.71926 6.8817 3.40132 7.11612 3.1669C7.35054 2.93248 7.66848 2.80078 8 2.80078ZM4.875 7.80078H11.125C11.4688 7.80078 11.75 8.08203 11.75 8.42578C11.75 8.76953 11.4688 9.05078 11.125 9.05078H4.875C4.53125 9.05078 4.25 8.76953 4.25 8.42578C4.25 8.08203 4.53125 7.80078 4.875 7.80078Z" fill="#8050A1"/>
</svg>
