<svg width="41" height="41" viewBox="0 0 41 41" fill="none" xmlns="http://www.w3.org/2000/svg">
<rect x="0.800049" y="0.900391" width="40" height="40" rx="20" fill="#DBEAFE"/>
<path d="M28.8 20C28.8 23.5906 25.2187 26.5 20.8 26.5C19.6406 26.5 18.5406 26.3 17.5469 25.9406C17.175 26.2125 16.5687 26.5844 15.85 26.8969C15.1 27.2219 14.1969 27.5 13.3 27.5C13.0969 27.5 12.9156 27.3781 12.8375 27.1906C12.7594 27.0031 12.8031 26.7906 12.9437 26.6469L12.9531 26.6375C12.9625 26.6281 12.975 26.6156 12.9937 26.5938C13.0281 26.5562 13.0812 26.4969 13.1469 26.4156C13.275 26.2594 13.4469 26.0281 13.6219 25.7406C13.9344 25.2219 14.2312 24.5406 14.2906 23.775C13.3531 22.7125 12.8 21.4094 12.8 20C12.8 16.4094 16.3812 13.5 20.8 13.5C25.2187 13.5 28.8 16.4094 28.8 20Z" fill="#3B82F6"/>
</svg>
