<svg width="13" height="12" viewBox="0 0 13 12" fill="none" xmlns="http://www.w3.org/2000/svg">
<path d="M6.79992 0.650391C7.13273 0.650391 7.43976 0.826172 7.60851 1.11445L12.671 9.73945C12.8421 10.0301 12.8421 10.3887 12.6757 10.6793C12.5093 10.9699 12.1976 11.1504 11.8624 11.1504H1.73742C1.40226 11.1504 1.09054 10.9699 0.924135 10.6793C0.757729 10.3887 0.760072 10.0277 0.928822 9.73945L5.99132 1.11445C6.16007 0.826172 6.4671 0.650391 6.79992 0.650391ZM6.79992 3.65039C6.4882 3.65039 6.23742 3.90117 6.23742 4.21289V6.83789C6.23742 7.14961 6.4882 7.40039 6.79992 7.40039C7.11163 7.40039 7.36242 7.14961 7.36242 6.83789V4.21289C7.36242 3.90117 7.11163 3.65039 6.79992 3.65039ZM7.54992 8.90039C7.54992 8.70148 7.4709 8.51071 7.33025 8.37006C7.18959 8.22941 6.99883 8.15039 6.79992 8.15039C6.601 8.15039 6.41024 8.22941 6.26959 8.37006C6.12893 8.51071 6.04992 8.70148 6.04992 8.90039C6.04992 9.0993 6.12893 9.29007 6.26959 9.43072C6.41024 9.57137 6.601 9.65039 6.79992 9.65039C6.99883 9.65039 7.18959 9.57137 7.33025 9.43072C7.4709 9.29007 7.54992 9.0993 7.54992 8.90039Z" fill="#B91C1C"/>
</svg>
