<svg width="13" height="13" viewBox="0 0 13 13" fill="none" xmlns="http://www.w3.org/2000/svg">
<path d="M11.6748 6.90039C11.6748 8.19332 11.1612 9.4333 10.247 10.3475C9.33271 11.2618 8.09274 11.7754 6.7998 11.7754C5.50687 11.7754 4.2669 11.2618 3.35266 10.3475C2.43842 9.4333 1.9248 8.19332 1.9248 6.90039C1.9248 5.60746 2.43842 4.36749 3.35266 3.45325C4.2669 2.53901 5.50687 2.02539 6.7998 2.02539C8.09274 2.02539 9.33271 2.53901 10.247 3.45325C11.1612 4.36749 11.6748 5.60746 11.6748 6.90039ZM0.799805 6.90039C0.799805 8.49169 1.43195 10.0178 2.55716 11.143C3.68238 12.2682 5.20851 12.9004 6.7998 12.9004C8.3911 12.9004 9.91723 12.2682 11.0424 11.143C12.1677 10.0178 12.7998 8.49169 12.7998 6.90039C12.7998 5.30909 12.1677 3.78297 11.0424 2.65775C9.91723 1.53253 8.3911 0.900391 6.7998 0.900391C5.20851 0.900391 3.68238 1.53253 2.55716 2.65775C1.43195 3.78297 0.799805 5.30909 0.799805 6.90039ZM6.2373 3.71289V6.90039C6.2373 7.08789 6.33105 7.26367 6.48809 7.36914L8.73809 8.86914C8.9959 9.04258 9.34512 8.97227 9.51855 8.71211C9.69199 8.45195 9.62168 8.10508 9.36152 7.93164L7.3623 6.60039V3.71289C7.3623 3.40117 7.11152 3.15039 6.7998 3.15039C6.48809 3.15039 6.2373 3.40117 6.2373 3.71289Z" fill="#A16207"/>
</svg>
