<svg width="18" height="19" viewBox="0 0 18 19" fill="none" xmlns="http://www.w3.org/2000/svg">
<path d="M9 18.0508C11.3869 18.0508 13.6761 17.1026 15.364 15.4147C17.0518 13.7269 18 11.4377 18 9.05078C18 6.66383 17.0518 4.37465 15.364 2.68682C13.6761 0.998993 11.3869 0.0507813 9 0.0507812C6.61305 0.0507813 4.32387 0.998993 2.63604 2.68682C0.948212 4.37465 0 6.66383 0 9.05078C0 11.4377 0.948212 13.7269 2.63604 15.4147C4.32387 17.1026 6.61305 18.0508 9 18.0508ZM7.59375 11.8633H8.4375V9.61328H7.59375C7.12617 9.61328 6.75 9.23711 6.75 8.76953C6.75 8.30195 7.12617 7.92578 7.59375 7.92578H9.28125C9.74883 7.92578 10.125 8.30195 10.125 8.76953V11.8633H10.4062C10.8738 11.8633 11.25 12.2395 11.25 12.707C11.25 13.1746 10.8738 13.5508 10.4062 13.5508H7.59375C7.12617 13.5508 6.75 13.1746 6.75 12.707C6.75 12.2395 7.12617 11.8633 7.59375 11.8633ZM9 4.55078C9.29837 4.55078 9.58452 4.66931 9.7955 4.88029C10.0065 5.09126 10.125 5.37741 10.125 5.67578C10.125 5.97415 10.0065 6.2603 9.7955 6.47128C9.58452 6.68225 9.29837 6.80078 9 6.80078C8.70163 6.80078 8.41548 6.68225 8.2045 6.47128C7.99353 6.2603 7.875 5.97415 7.875 5.67578C7.875 5.37741 7.99353 5.09126 8.2045 4.88029C8.41548 4.66931 8.70163 4.55078 9 4.55078Z" fill="#1D4ED8"/>
</svg>
