<svg width="12" height="17" viewBox="0 0 12 17" fill="none" xmlns="http://www.w3.org/2000/svg">
<path d="M1.5 0.199219C0.671875 0.199219 0 0.871094 0 1.69922V14.6992C0 15.5273 0.671875 16.1992 1.5 16.1992H4.5V13.6992C4.5 12.8711 5.17188 12.1992 6 12.1992C6.82812 12.1992 7.5 12.8711 7.5 13.6992V16.1992H10.5C11.3281 16.1992 12 15.5273 12 14.6992V1.69922C12 0.871094 11.3281 0.199219 10.5 0.199219H1.5ZM2 7.69922C2 7.42422 2.225 7.19922 2.5 7.19922H3.5C3.775 7.19922 4 7.42422 4 7.69922V8.69922C4 8.97422 3.775 9.19922 3.5 9.19922H2.5C2.225 9.19922 2 8.97422 2 8.69922V7.69922ZM5.5 7.19922H6.5C6.775 7.19922 7 7.42422 7 7.69922V8.69922C7 8.97422 6.775 9.19922 6.5 9.19922H5.5C5.225 9.19922 5 8.97422 5 8.69922V7.69922C5 7.42422 5.225 7.19922 5.5 7.19922ZM8 7.69922C8 7.42422 8.225 7.19922 8.5 7.19922H9.5C9.775 7.19922 10 7.42422 10 7.69922V8.69922C10 8.97422 9.775 9.19922 9.5 9.19922H8.5C8.225 9.19922 8 8.97422 8 8.69922V7.69922ZM2.5 3.19922H3.5C3.775 3.19922 4 3.42422 4 3.69922V4.69922C4 4.97422 3.775 5.19922 3.5 5.19922H2.5C2.225 5.19922 2 4.97422 2 4.69922V3.69922C2 3.42422 2.225 3.19922 2.5 3.19922ZM5 3.69922C5 3.42422 5.225 3.19922 5.5 3.19922H6.5C6.775 3.19922 7 3.42422 7 3.69922V4.69922C7 4.97422 6.775 5.19922 6.5 5.19922H5.5C5.225 5.19922 5 4.97422 5 4.69922V3.69922ZM8.5 3.19922H9.5C9.775 3.19922 10 3.42422 10 3.69922V4.69922C10 4.97422 9.775 5.19922 9.5 5.19922H8.5C8.225 5.19922 8 4.97422 8 4.69922V3.69922C8 3.42422 8.225 3.19922 8.5 3.19922Z" fill="#3B82F6"/>
</svg>
