<svg width="16" height="17" viewBox="0 0 16 17" fill="none" xmlns="http://www.w3.org/2000/svg">
<path d="M9.5 1.69922C9.5 1.30139 9.34196 0.919863 9.06066 0.638559C8.77936 0.357254 8.39782 0.199219 8 0.199219C7.60218 0.199219 7.22064 0.357254 6.93934 0.638559C6.65804 0.919863 6.5 1.30139 6.5 1.69922C6.5 2.09704 6.65804 2.47857 6.93934 2.75988C7.22064 3.04118 7.60218 3.19922 8 3.19922C8.39782 3.19922 8.77936 3.04118 9.06066 2.75988C9.34196 2.47857 9.5 2.09704 9.5 1.69922ZM9.5 14.6992C9.5 14.3014 9.34196 13.9199 9.06066 13.6386C8.77936 13.3573 8.39782 13.1992 8 13.1992C7.60218 13.1992 7.22064 13.3573 6.93934 13.6386C6.65804 13.9199 6.5 14.3014 6.5 14.6992C6.5 15.097 6.65804 15.4786 6.93934 15.7599C7.22064 16.0412 7.60218 16.1992 8 16.1992C8.39782 16.1992 8.77936 16.0412 9.06066 15.7599C9.34196 15.4786 9.5 15.097 9.5 14.6992ZM1.5 9.69922C1.89782 9.69922 2.27936 9.54118 2.56066 9.25988C2.84196 8.97857 3 8.59704 3 8.19922C3 7.80139 2.84196 7.41986 2.56066 7.13856C2.27936 6.85725 1.89782 6.69922 1.5 6.69922C1.10218 6.69922 0.720644 6.85725 0.43934 7.13856C0.158035 7.41986 0 7.80139 0 8.19922C0 8.59704 0.158035 8.97857 0.43934 9.25988C0.720644 9.54118 1.10218 9.69922 1.5 9.69922ZM16 8.19922C16 7.80139 15.842 7.41986 15.5607 7.13856C15.2794 6.85725 14.8978 6.69922 14.5 6.69922C14.1022 6.69922 13.7206 6.85725 13.4393 7.13856C13.158 7.41986 13 7.80139 13 8.19922C13 8.59704 13.158 8.97857 13.4393 9.25988C13.7206 9.54118 14.1022 9.69922 14.5 9.69922C14.8978 9.69922 15.2794 9.54118 15.5607 9.25988C15.842 8.97857 16 8.59704 16 8.19922ZM4.46562 13.8555C4.60495 13.7161 4.71547 13.5507 4.79087 13.3687C4.86627 13.1867 4.90508 12.9916 4.90508 12.7945C4.90508 12.5975 4.86627 12.4024 4.79087 12.2204C4.71547 12.0383 4.60495 11.8729 4.46562 11.7336C4.3263 11.5943 4.1609 11.4838 3.97886 11.4083C3.79683 11.3329 3.60172 11.2941 3.40469 11.2941C3.00676 11.2941 2.62513 11.4522 2.34375 11.7336C2.06237 12.015 1.9043 12.3966 1.9043 12.7945C1.9043 13.1925 2.06237 13.5741 2.34375 13.8555C2.62513 14.1368 3.00676 14.2949 3.40469 14.2949C3.80262 14.2949 4.18425 14.1368 4.46562 13.8555ZM4.46562 4.66172C4.61187 4.52402 4.72897 4.35834 4.80997 4.17453C4.89098 3.99071 4.93424 3.7925 4.93718 3.59164C4.94013 3.39079 4.90271 3.1914 4.82713 3.00528C4.75155 2.81917 4.63937 2.65013 4.49722 2.5082C4.35508 2.36626 4.18588 2.25432 3.99965 2.17902C3.81343 2.10372 3.61397 2.06659 3.41313 2.06983C3.21228 2.07308 3.01413 2.11663 2.83043 2.1979C2.64674 2.27918 2.48124 2.39652 2.34375 2.54297C2.06237 2.82435 1.9043 3.20598 1.9043 3.60391C1.9043 4.00183 2.06237 4.38347 2.34375 4.66484C2.62513 4.94622 3.00676 5.1043 3.40469 5.1043C3.80262 5.1043 4.18425 4.94622 4.46562 4.66484V4.66172ZM11.5344 13.8555C11.6737 13.9948 11.8391 14.1053 12.0211 14.1807C12.2032 14.2561 12.3983 14.2949 12.5953 14.2949C12.7923 14.2949 12.9875 14.2561 13.1695 14.1807C13.3515 14.1053 13.5169 13.9948 13.6562 13.8555C13.7956 13.7161 13.9061 13.5507 13.9815 13.3687C14.0569 13.1867 14.0957 12.9916 14.0957 12.7945C14.0957 12.5975 14.0569 12.4024 13.9815 12.2204C13.9061 12.0383 13.7956 11.8729 13.6562 11.7336C13.5169 11.5943 13.3515 11.4838 13.1695 11.4083C12.9875 11.3329 12.7923 11.2941 12.5953 11.2941C12.3983 11.2941 12.2032 11.3329 12.0211 11.4083C11.8391 11.4838 11.6737 11.5943 11.5344 11.7336C11.3951 11.8729 11.2845 12.0383 11.2091 12.2204C11.1337 12.4024 11.0949 12.5975 11.0949 12.7945C11.0949 12.9916 11.1337 13.1867 11.2091 13.3687C11.2845 13.5507 11.3951 13.7161 11.5344 13.8555Z" fill="#EAB308"/>
</svg>
