<svg width="15" height="13" viewBox="0 0 15 13" fill="none" xmlns="http://www.w3.org/2000/svg">
<path d="M4.41743 3.05691C6.11821 1.35613 8.86626 1.34793 10.578 3.02957L9.45142 4.15339C9.26274 4.34207 9.20806 4.62371 9.30923 4.8698C9.4104 5.11589 9.65103 5.27449 9.91626 5.27449H13.1838H13.4163C13.7799 5.27449 14.0725 4.98191 14.0725 4.61824V1.11824C14.0725 0.853004 13.9139 0.612378 13.6678 0.511207C13.4217 0.410035 13.1401 0.464722 12.9514 0.653394L11.8139 1.79089C9.4186 -0.57434 5.5604 -0.566137 3.17876 1.81824C2.51157 2.48543 2.03032 3.27019 1.73501 4.10964C1.57368 4.56628 1.81431 5.06394 2.26821 5.22527C2.72212 5.3866 3.22251 5.14597 3.38384 4.69207C3.59438 4.09597 3.93618 3.53543 4.41743 3.05691ZM0.94751 7.68074V7.88855V7.90769V11.1807C0.94751 11.446 1.1061 11.6866 1.3522 11.7878C1.59829 11.8889 1.87993 11.8343 2.0686 11.6456L3.2061 10.5081C5.60142 12.8733 9.45962 12.8651 11.8413 10.4807C12.5084 9.81355 12.9924 9.02879 13.2877 8.19207C13.4491 7.73543 13.2084 7.23777 12.7545 7.07644C12.3006 6.91511 11.8002 7.15574 11.6389 7.60964C11.4284 8.20574 11.0866 8.76628 10.6053 9.2448C8.90454 10.9456 6.15649 10.9538 4.44478 9.27214L5.5686 8.14558C5.75728 7.95691 5.81196 7.67527 5.71079 7.42918C5.60962 7.18308 5.36899 7.02449 5.10376 7.02449H1.83345H1.81431H1.60376C1.24009 7.02449 0.94751 7.31707 0.94751 7.68074Z" fill="#6B7280"/>
</svg>
