<svg width="17" height="17" viewBox="0 0 17 17" fill="none" xmlns="http://www.w3.org/2000/svg">
<path d="M8.5 7.69922V0.717969C8.5 0.436719 8.71875 0.199219 9 0.199219C12.8656 0.199219 16 3.33359 16 7.19922C16 7.48047 15.7625 7.69922 15.4813 7.69922H8.5ZM0 8.69922C0 4.90859 2.81562 1.77109 6.46875 1.27109C6.75625 1.23047 7 1.46172 7 1.75234V9.19922L11.8906 14.0898C12.1 14.2992 12.0844 14.643 11.8438 14.8117C10.6187 15.6867 9.11875 16.1992 7.5 16.1992C3.35938 16.1992 0 12.843 0 8.69922ZM16.45 9.19922C16.7406 9.19922 16.9688 9.44297 16.9312 9.73047C16.6906 11.4773 15.85 13.0305 14.6219 14.1773C14.4344 14.3523 14.1406 14.3398 13.9594 14.1555L9 9.19922H16.45Z" fill="#A855F7"/>
</svg>
