<svg width="15" height="15" viewBox="0 0 15 15" fill="none" xmlns="http://www.w3.org/2000/svg">
<path d="M11.4191 6.66543L11.7281 6.35645L10.8011 5.42949L9.10308 3.73145L8.17613 2.80449L7.86714 3.11348L7.24917 3.73145L1.8023 9.17832C1.51792 9.4627 1.31011 9.81543 1.19527 10.201L0.227298 13.4932C0.158938 13.7229 0.221829 13.9717 0.394095 14.1412C0.56636 14.3107 0.812454 14.3736 1.04214 14.308L4.33159 13.34C4.71714 13.2252 5.06988 13.0174 5.35425 12.733L10.8011 7.28613L11.4191 6.66543ZM4.57495 11.2701L4.32613 11.8908C4.21675 11.9756 4.0937 12.0385 3.96245 12.0795L1.82417 12.7084L2.45308 10.5729C2.49136 10.4389 2.55699 10.3158 2.64175 10.2092L3.26245 9.96035V10.8354C3.26245 11.076 3.45933 11.2729 3.69995 11.2729H4.57495V11.2701ZM10.1175 0.860352L9.72378 1.25684L9.10581 1.8748L8.79409 2.18379L9.72105 3.11074L11.4191 4.80879L12.346 5.73574L12.655 5.42676L13.273 4.80879L13.6695 4.4123C14.3531 3.72871 14.3531 2.62129 13.6695 1.9377L12.5949 0.860352C11.9113 0.176758 10.8039 0.176758 10.1203 0.860352H10.1175ZM8.82144 5.4541L4.88394 9.3916C4.71441 9.56113 4.4355 9.56113 4.26597 9.3916C4.09644 9.22207 4.09644 8.94316 4.26597 8.77363L8.20347 4.83613C8.373 4.6666 8.65191 4.6666 8.82144 4.83613C8.99097 5.00566 8.99097 5.28457 8.82144 5.4541Z" fill="#4B5563"/>
</svg>
