<svg width="18" height="14" viewBox="0 0 18 14" fill="none" xmlns="http://www.w3.org/2000/svg">
<path d="M9.0002 1.5C6.9627 1.5 5.2877 2.425 4.00332 3.61562C2.8002 4.73438 1.96895 6.0625 1.54395 7C1.96895 7.9375 2.8002 9.26562 4.0002 10.3844C5.2877 11.575 6.9627 12.5 9.0002 12.5C11.0377 12.5 12.7127 11.575 13.9971 10.3844C15.2002 9.26562 16.0314 7.9375 16.4564 7C16.0314 6.0625 15.2002 4.73438 14.0002 3.61562C12.7127 2.425 11.0377 1.5 9.0002 1.5ZM2.98145 2.51875C4.45332 1.15 6.4752 0 9.0002 0C11.5252 0 13.5471 1.15 15.0189 2.51875C16.4814 3.87812 17.4596 5.5 17.9252 6.61562C18.0283 6.8625 18.0283 7.1375 17.9252 7.38437C17.4596 8.5 16.4814 10.125 15.0189 11.4812C13.5471 12.85 11.5252 14 9.0002 14C6.4752 14 4.45332 12.85 2.98145 11.4812C1.51895 10.125 0.54082 8.5 0.0783203 7.38437C-0.0248047 7.1375 -0.0248047 6.8625 0.0783203 6.61562C0.54082 5.5 1.51895 3.875 2.98145 2.51875ZM9.0002 9.5C10.3814 9.5 11.5002 8.38125 11.5002 7C11.5002 5.61875 10.3814 4.5 9.0002 4.5C8.97832 4.5 8.95957 4.5 8.9377 4.5C8.97832 4.65938 9.0002 4.82812 9.0002 5C9.0002 6.10313 8.10332 7 7.0002 7C6.82832 7 6.65957 6.97813 6.5002 6.9375C6.5002 6.95937 6.5002 6.97813 6.5002 7C6.5002 8.38125 7.61895 9.5 9.0002 9.5ZM9.0002 3C10.0611 3 11.0785 3.42143 11.8286 4.17157C12.5788 4.92172 13.0002 5.93913 13.0002 7C13.0002 8.06087 12.5788 9.07828 11.8286 9.82843C11.0785 10.5786 10.0611 11 9.0002 11C7.93933 11 6.92191 10.5786 6.17177 9.82843C5.42162 9.07828 5.0002 8.06087 5.0002 7C5.0002 5.93913 5.42162 4.92172 6.17177 4.17157C6.92191 3.42143 7.93933 3 9.0002 3Z" fill="#6B7280"/>
</svg>
