<svg width="13" height="15" viewBox="0 0 13 15" fill="none" xmlns="http://www.w3.org/2000/svg">
<path d="M3.89707 0.833594L3.7002 1.22461H1.0752C0.591211 1.22461 0.200195 1.61563 0.200195 2.09961C0.200195 2.58359 0.591211 2.97461 1.0752 2.97461H11.5752C12.0592 2.97461 12.4502 2.58359 12.4502 2.09961C12.4502 1.61563 12.0592 1.22461 11.5752 1.22461H8.9502L8.75332 0.833594C8.60566 0.535547 8.30215 0.349609 7.97129 0.349609H4.6791C4.34824 0.349609 4.04473 0.535547 3.89707 0.833594ZM11.5752 3.84961H1.0752L1.65488 13.1191C1.69863 13.8109 2.27285 14.3496 2.96465 14.3496H9.68574C10.3775 14.3496 10.9518 13.8109 10.9955 13.1191L11.5752 3.84961Z" fill="#4B5563"/>
</svg>
