<svg width="20" height="17" viewBox="0 0 20 17" fill="none" xmlns="http://www.w3.org/2000/svg">
<path d="M4.5 0.599609C5.16304 0.599609 5.79893 0.863001 6.26777 1.33184C6.73661 1.80068 7 2.43657 7 3.09961C7 3.76265 6.73661 4.39854 6.26777 4.86738C5.79893 5.33622 5.16304 5.59961 4.5 5.59961C3.83696 5.59961 3.20107 5.33622 2.73223 4.86738C2.26339 4.39854 2 3.76265 2 3.09961C2 2.43657 2.26339 1.80068 2.73223 1.33184C3.20107 0.863001 3.83696 0.599609 4.5 0.599609ZM16 0.599609C16.663 0.599609 17.2989 0.863001 17.7678 1.33184C18.2366 1.80068 18.5 2.43657 18.5 3.09961C18.5 3.76265 18.2366 4.39854 17.7678 4.86738C17.2989 5.33622 16.663 5.59961 16 5.59961C15.337 5.59961 14.7011 5.33622 14.2322 4.86738C13.7634 4.39854 13.5 3.76265 13.5 3.09961C13.5 2.43657 13.7634 1.80068 14.2322 1.33184C14.7011 0.863001 15.337 0.599609 16 0.599609ZM0 9.93398C0 8.09336 1.49375 6.59961 3.33437 6.59961H4.66875C5.16562 6.59961 5.6375 6.70898 6.0625 6.90273C6.02187 7.12773 6.00313 7.36211 6.00313 7.59961C6.00313 8.79336 6.52812 9.86523 7.35625 10.5996C7.35 10.5996 7.34375 10.5996 7.33437 10.5996H0.665625C0.3 10.5996 0 10.2996 0 9.93398ZM12.6656 10.5996C12.6594 10.5996 12.6531 10.5996 12.6438 10.5996C13.475 9.86523 13.9969 8.79336 13.9969 7.59961C13.9969 7.36211 13.975 7.13086 13.9375 6.90273C14.3625 6.70586 14.8344 6.59961 15.3313 6.59961H16.6656C18.5063 6.59961 20 8.09336 20 9.93398C20 10.3027 19.7 10.5996 19.3344 10.5996H12.6656ZM7 7.59961C7 6.80396 7.31607 6.0409 7.87868 5.47829C8.44129 4.91568 9.20435 4.59961 10 4.59961C10.7956 4.59961 11.5587 4.91568 12.1213 5.47829C12.6839 6.0409 13 6.80396 13 7.59961C13 8.39526 12.6839 9.15832 12.1213 9.72093C11.5587 10.2835 10.7956 10.5996 10 10.5996C9.20435 10.5996 8.44129 10.2835 7.87868 9.72093C7.31607 9.15832 7 8.39526 7 7.59961ZM4 15.7652C4 13.4652 5.86562 11.5996 8.16562 11.5996H11.8344C14.1344 11.5996 16 13.4652 16 15.7652C16 16.2246 15.6281 16.5996 15.1656 16.5996H4.83437C4.375 16.5996 4 16.2277 4 15.7652Z" fill="#9333EA"/>
</svg>
