<svg width="19" height="19" viewBox="0 0 19 19" fill="none" xmlns="http://www.w3.org/2000/svg">
<path d="M2.37988 3C2.37988 2.37773 1.87715 1.875 1.25488 1.875C0.632617 1.875 0.129883 2.37773 0.129883 3V14.8125C0.129883 16.3664 1.38848 17.625 2.94238 17.625H17.0049C17.6271 17.625 18.1299 17.1223 18.1299 16.5C18.1299 15.8777 17.6271 15.375 17.0049 15.375H2.94238C2.63301 15.375 2.37988 15.1219 2.37988 14.8125V3ZM16.6744 6.04453C17.1139 5.60508 17.1139 4.89141 16.6744 4.45195C16.235 4.0125 15.5213 4.0125 15.0818 4.45195L11.3799 8.15742L9.36191 6.13945C8.92246 5.7 8.20879 5.7 7.76934 6.13945L3.83184 10.077C3.39238 10.5164 3.39238 11.2301 3.83184 11.6695C4.27129 12.109 4.98496 12.109 5.42441 11.6695L8.56738 8.53008L10.5854 10.548C11.0248 10.9875 11.7385 10.9875 12.1779 10.548L16.6779 6.04805L16.6744 6.04453Z" fill="#0A3749"/>
</svg>
