<svg width="13" height="15" viewBox="0 0 13 15" fill="none" xmlns="http://www.w3.org/2000/svg">
<path d="M3.89707 0.634375L3.7002 1.02539H1.0752C0.591211 1.02539 0.200195 1.41641 0.200195 1.90039C0.200195 2.38438 0.591211 2.77539 1.0752 2.77539H11.5752C12.0592 2.77539 12.4502 2.38438 12.4502 1.90039C12.4502 1.41641 12.0592 1.02539 11.5752 1.02539H8.9502L8.75332 0.634375C8.60566 0.336328 8.30215 0.150391 7.97129 0.150391H4.6791C4.34824 0.150391 4.04473 0.336328 3.89707 0.634375ZM11.5752 3.65039H1.0752L1.65488 12.9199C1.69863 13.6117 2.27285 14.1504 2.96465 14.1504H9.68574C10.3775 14.1504 10.9518 13.6117 10.9955 12.9199L11.5752 3.65039Z" fill="#4B5563"/>
</svg>
