<svg width="15" height="17" viewBox="0 0 15 17" fill="none" xmlns="http://www.w3.org/2000/svg">
<path d="M5.1249 1.15469C5.29365 0.814063 5.64053 0.601562 6.01865 0.601562H9.78115C10.1593 0.601562 10.5062 0.814063 10.6749 1.15469L10.8999 1.60156H13.8999C14.453 1.60156 14.8999 2.04844 14.8999 2.60156C14.8999 3.15469 14.453 3.60156 13.8999 3.60156H1.8999C1.34678 3.60156 0.899902 3.15469 0.899902 2.60156C0.899902 2.04844 1.34678 1.60156 1.8999 1.60156H4.8999L5.1249 1.15469ZM1.8999 4.60156H13.8999V14.6016C13.8999 15.7047 13.003 16.6016 11.8999 16.6016H3.8999C2.79678 16.6016 1.8999 15.7047 1.8999 14.6016V4.60156ZM4.8999 6.60156C4.6249 6.60156 4.3999 6.82656 4.3999 7.10156V14.1016C4.3999 14.3766 4.6249 14.6016 4.8999 14.6016C5.1749 14.6016 5.3999 14.3766 5.3999 14.1016V7.10156C5.3999 6.82656 5.1749 6.60156 4.8999 6.60156ZM7.8999 6.60156C7.6249 6.60156 7.3999 6.82656 7.3999 7.10156V14.1016C7.3999 14.3766 7.6249 14.6016 7.8999 14.6016C8.1749 14.6016 8.3999 14.3766 8.3999 14.1016V7.10156C8.3999 6.82656 8.1749 6.60156 7.8999 6.60156ZM10.8999 6.60156C10.6249 6.60156 10.3999 6.82656 10.3999 7.10156V14.1016C10.3999 14.3766 10.6249 14.6016 10.8999 14.6016C11.1749 14.6016 11.3999 14.3766 11.3999 14.1016V7.10156C11.3999 6.82656 11.1749 6.60156 10.8999 6.60156Z" fill="#EF4444"/>
</svg>
