<svg width="18" height="15" viewBox="0 0 18 15" fill="none" xmlns="http://www.w3.org/2000/svg">
<path d="M6.5 1.90039C6.5 1.07227 7.17188 0.400391 8 0.400391H10C10.8281 0.400391 11.5 1.07227 11.5 1.90039V3.90039C11.5 4.72852 10.8281 5.40039 10 5.40039H9.75V6.65039H14.5C15.4656 6.65039 16.25 7.43477 16.25 8.40039V9.40039H16.5C17.3281 9.40039 18 10.0723 18 10.9004V12.9004C18 13.7285 17.3281 14.4004 16.5 14.4004H14.5C13.6719 14.4004 13 13.7285 13 12.9004V10.9004C13 10.0723 13.6719 9.40039 14.5 9.40039H14.75V8.40039C14.75 8.26289 14.6375 8.15039 14.5 8.15039H9.75V9.40039H10C10.8281 9.40039 11.5 10.0723 11.5 10.9004V12.9004C11.5 13.7285 10.8281 14.4004 10 14.4004H8C7.17188 14.4004 6.5 13.7285 6.5 12.9004V10.9004C6.5 10.0723 7.17188 9.40039 8 9.40039H8.25V8.15039H3.5C3.3625 8.15039 3.25 8.26289 3.25 8.40039V9.40039H3.5C4.32812 9.40039 5 10.0723 5 10.9004V12.9004C5 13.7285 4.32812 14.4004 3.5 14.4004H1.5C0.671875 14.4004 0 13.7285 0 12.9004V10.9004C0 10.0723 0.671875 9.40039 1.5 9.40039H1.75V8.40039C1.75 7.43477 2.53437 6.65039 3.5 6.65039H8.25V5.40039H8C7.17188 5.40039 6.5 4.72852 6.5 3.90039V1.90039Z" fill="#9CA3AF"/>
</svg>
