<svg width="17" height="15" viewBox="0 0 17 15" fill="none" xmlns="http://www.w3.org/2000/svg">
<path d="M4.44669 0.456641C4.58732 0.266016 4.81232 0.150391 5.04982 0.150391H12.5498C12.7873 0.150391 13.0123 0.262891 13.1529 0.456641L16.6529 5.20664C16.8654 5.49414 16.8436 5.89102 16.6061 6.15664L9.35607 14.1566C9.21544 14.3129 9.01232 14.4035 8.79982 14.4035C8.58732 14.4035 8.38732 14.3129 8.24357 14.1566L0.993566 6.15664C0.752941 5.89102 0.734191 5.49414 0.946691 5.20664L4.44669 0.456641ZM5.64982 1.70039C5.54669 1.77852 5.51857 1.91914 5.58419 2.02852L7.37794 5.01602L2.77794 5.40039C2.64982 5.40977 2.54982 5.51914 2.54982 5.65039C2.54982 5.78164 2.64982 5.88789 2.77794 5.90039L8.77794 6.40039C8.79044 6.40039 8.80607 6.40039 8.81857 6.40039L14.8186 5.90039C14.9467 5.89102 15.0467 5.78164 15.0467 5.65039C15.0467 5.51914 14.9467 5.41289 14.8186 5.40039L10.2217 5.01914L12.0154 2.03164C12.0811 1.92227 12.0529 1.77852 11.9498 1.70352C11.8467 1.62852 11.7029 1.64102 11.6154 1.73477L8.79982 4.78164L5.98419 1.73164C5.89669 1.63789 5.75294 1.62539 5.64982 1.70039Z" fill="#0284C7"/>
</svg>
