<svg width="20" height="19" viewBox="0 0 20 19" fill="none" xmlns="http://www.w3.org/2000/svg">
<path d="M4.55861 0.621094C4.73439 0.382812 5.01564 0.238281 5.31251 0.238281H14.6875C14.9844 0.238281 15.2656 0.378906 15.4414 0.621094L19.8164 6.55859C20.082 6.91797 20.0547 7.41406 19.7578 7.74609L10.6953 17.7461C10.5195 17.9414 10.2656 18.0547 10 18.0547C9.73439 18.0547 9.48439 17.9414 9.3047 17.7461L0.242202 7.74609C-0.0585791 7.41406 -0.0820167 6.91797 0.183608 6.55859L4.55861 0.621094ZM6.06251 2.17578C5.93361 2.27344 5.89845 2.44922 5.98048 2.58594L8.22267 6.32031L2.47267 6.80078C2.31251 6.8125 2.18751 6.94922 2.18751 7.11328C2.18751 7.27734 2.31251 7.41016 2.47267 7.42578L9.97267 8.05078C9.9883 8.05078 10.0078 8.05078 10.0235 8.05078L17.5235 7.42578C17.6836 7.41406 17.8086 7.27734 17.8086 7.11328C17.8086 6.94922 17.6836 6.81641 17.5235 6.80078L11.7774 6.32422L14.0195 2.58984C14.1016 2.45312 14.0664 2.27344 13.9375 2.17969C13.8086 2.08594 13.6289 2.10156 13.5195 2.21875L10 6.02734L6.48048 2.21484C6.37111 2.09766 6.19142 2.08203 6.06251 2.17578Z" fill="#0A3749"/>
</svg>
