<svg width="16" height="17" viewBox="0 0 16 17" fill="none" xmlns="http://www.w3.org/2000/svg">
<path d="M9 1.59961C9 1.04648 8.55313 0.599609 8 0.599609C7.44688 0.599609 7 1.04648 7 1.59961V9.18398L4.70625 6.89023C4.31563 6.49961 3.68125 6.49961 3.29063 6.89023C2.9 7.28086 2.9 7.91523 3.29063 8.30586L7.29063 12.3059C7.68125 12.6965 8.31563 12.6965 8.70625 12.3059L12.7063 8.30586C13.0969 7.91523 13.0969 7.28086 12.7063 6.89023C12.3156 6.49961 11.6812 6.49961 11.2906 6.89023L9 9.18398V1.59961ZM2 11.5996C0.896875 11.5996 0 12.4965 0 13.5996V14.5996C0 15.7027 0.896875 16.5996 2 16.5996H14C15.1031 16.5996 16 15.7027 16 14.5996V13.5996C16 12.4965 15.1031 11.5996 14 11.5996H10.8281L9.4125 13.0152C8.63125 13.7965 7.36562 13.7965 6.58437 13.0152L5.17188 11.5996H2ZM13.5 13.3496C13.6989 13.3496 13.8897 13.4286 14.0303 13.5693C14.171 13.7099 14.25 13.9007 14.25 14.0996C14.25 14.2985 14.171 14.4893 14.0303 14.6299C13.8897 14.7706 13.6989 14.8496 13.5 14.8496C13.3011 14.8496 13.1103 14.7706 12.9697 14.6299C12.829 14.4893 12.75 14.2985 12.75 14.0996C12.75 13.9007 12.829 13.7099 12.9697 13.5693C13.1103 13.4286 13.3011 13.3496 13.5 13.3496Z" fill="#1F2937"/>
</svg>
