<svg width="38" height="27" viewBox="0 0 38 27" fill="none" xmlns="http://www.w3.org/2000/svg">
<path d="M8.6875 26.2754C4.0293 26.2754 0.25 22.4961 0.25 17.8379C0.25 14.1582 2.60547 11.0293 5.88672 9.875C5.88086 9.7168 5.875 9.55859 5.875 9.40039C5.875 4.2207 10.0703 0.0253906 15.25 0.0253906C18.7246 0.0253906 21.7539 1.91211 23.377 4.72461C24.2676 4.12695 25.3457 3.77539 26.5 3.77539C29.6055 3.77539 32.125 6.29492 32.125 9.40039C32.125 10.1152 31.9902 10.7949 31.75 11.4277C35.1719 12.1191 37.75 15.1484 37.75 18.7754C37.75 22.918 34.3926 26.2754 30.25 26.2754H8.6875ZM13.3164 13.5605C12.7656 14.1113 12.7656 15.002 13.3164 15.5469C13.8672 16.0918 14.7578 16.0977 15.3027 15.5469L17.5879 13.2617V21.1191C17.5879 21.8984 18.2148 22.5254 18.9941 22.5254C19.7734 22.5254 20.4004 21.8984 20.4004 21.1191V13.2617L22.6855 15.5469C23.2363 16.0977 24.127 16.0977 24.6719 15.5469C25.2168 14.9961 25.2227 14.1055 24.6719 13.5605L19.9844 8.87305C19.4336 8.32227 18.543 8.32227 17.998 8.87305L13.3105 13.5605H13.3164Z" fill="#9CA3AF"/>
</svg>
