<svg width="41" height="41" viewBox="0 0 41 41" fill="none" xmlns="http://www.w3.org/2000/svg">
<rect x="0.800049" y="0.5" width="40" height="40" rx="20" fill="#FEF3C7"/>
<path d="M20.8 12.0996C22.9218 12.0996 24.9566 12.9425 26.4569 14.4428C27.9572 15.943 28.8 17.9779 28.8 20.0996C28.8 22.2213 27.9572 24.2562 26.4569 25.7565C24.9566 27.2568 22.9218 28.0996 20.8 28.0996C18.6783 28.0996 16.6435 27.2568 15.1432 25.7565C13.6429 24.2562 12.8 22.2213 12.8 20.0996C12.8 17.9779 13.6429 15.943 15.1432 14.4428C16.6435 12.9425 18.6783 12.0996 20.8 12.0996ZM20.05 15.8496V20.0996C20.05 20.3496 20.175 20.584 20.3844 20.7246L23.3844 22.7246C23.7282 22.9559 24.1938 22.8621 24.425 22.5152C24.6563 22.1684 24.5625 21.7059 24.2157 21.4746L21.55 19.6996V15.8496C21.55 15.434 21.2157 15.0996 20.8 15.0996C20.3844 15.0996 20.05 15.434 20.05 15.8496Z" fill="#F59E0B"/>
</svg>
