<svg width="15" height="15" viewBox="0 0 15 15" fill="none" xmlns="http://www.w3.org/2000/svg">
<path d="M11.4191 6.46621L11.7281 6.15723L10.8011 5.23027L9.10308 3.53223L8.17613 2.60527L7.86714 2.91426L7.24917 3.53223L1.8023 8.9791C1.51792 9.26348 1.31011 9.61621 1.19527 10.0018L0.227298 13.2939C0.158938 13.5236 0.221829 13.7725 0.394095 13.942C0.56636 14.1115 0.812454 14.1744 1.04214 14.1088L4.33159 13.1408C4.71714 13.026 5.06988 12.8182 5.35425 12.5338L10.8011 7.08691L11.4191 6.46621ZM4.57495 11.0709L4.32613 11.6916C4.21675 11.7764 4.0937 11.8393 3.96245 11.8803L1.82417 12.5092L2.45308 10.3736C2.49136 10.2396 2.55699 10.1166 2.64175 10.01L3.26245 9.76113V10.6361C3.26245 10.8768 3.45933 11.0736 3.69995 11.0736H4.57495V11.0709ZM10.1175 0.661133L9.72378 1.05762L9.10581 1.67559L8.79409 1.98457L9.72105 2.91152L11.4191 4.60957L12.346 5.53652L12.655 5.22754L13.273 4.60957L13.6695 4.21309C14.3531 3.52949 14.3531 2.42207 13.6695 1.73848L12.5949 0.661133C11.9113 -0.0224609 10.8039 -0.0224609 10.1203 0.661133H10.1175ZM8.82144 5.25488L4.88394 9.19238C4.71441 9.36191 4.4355 9.36191 4.26597 9.19238C4.09644 9.02285 4.09644 8.74395 4.26597 8.57441L8.20347 4.63691C8.373 4.46738 8.65191 4.46738 8.82144 4.63691C8.99097 4.80645 8.99097 5.08535 8.82144 5.25488Z" fill="#4B5563"/>
</svg>
