<svg width="20" height="17" viewBox="0 0 20 17" fill="none" xmlns="http://www.w3.org/2000/svg">
<path d="M5.75 2.09961H10.25C10.3875 2.09961 10.5 2.21211 10.5 2.34961V3.59961H5.5V2.34961C5.5 2.21211 5.6125 2.09961 5.75 2.09961ZM4 2.34961V3.59961H2C0.896875 3.59961 0 4.49648 0 5.59961V8.59961H6H11H11.2563C12.2656 7.37773 13.7906 6.59961 15.5 6.59961C15.6687 6.59961 15.8344 6.60586 16 6.62148V5.59961C16 4.49648 15.1031 3.59961 14 3.59961H12V2.34961C12 1.38398 11.2156 0.599609 10.25 0.599609H5.75C4.78438 0.599609 4 1.38398 4 2.34961ZM10 11.5996H7C6.44688 11.5996 6 11.1527 6 10.5996V9.59961H0V13.5996C0 14.7027 0.896875 15.5996 2 15.5996H11.2563C10.4719 14.6496 10 13.4277 10 12.0996C10 11.9309 10.0063 11.7652 10.0219 11.5996H10ZM20 12.0996C20 10.9061 19.5259 9.76154 18.682 8.91763C17.8381 8.07372 16.6935 7.59961 15.5 7.59961C14.3065 7.59961 13.1619 8.07372 12.318 8.91763C11.4741 9.76154 11 10.9061 11 12.0996C11 13.2931 11.4741 14.4377 12.318 15.2816C13.1619 16.1255 14.3065 16.5996 15.5 16.5996C16.6935 16.5996 17.8381 16.1255 18.682 15.2816C19.5259 14.4377 20 13.2931 20 12.0996ZM15.5 9.59961C15.775 9.59961 16 9.82461 16 10.0996V11.5996H17C17.275 11.5996 17.5 11.8246 17.5 12.0996C17.5 12.3746 17.275 12.5996 17 12.5996H15.5C15.225 12.5996 15 12.3746 15 12.0996V10.0996C15 9.82461 15.225 9.59961 15.5 9.59961Z" fill="#9CA3AF"/>
</svg>
