<svg width="18" height="15" viewBox="0 0 18 15" fill="none" xmlns="http://www.w3.org/2000/svg">
<path d="M0 2.59961H18C18 1.49648 17.1031 0.599609 16 0.599609H2C0.896875 0.599609 0 1.49648 0 2.59961ZM0 3.59961V12.5996C0 13.7027 0.896875 14.5996 2 14.5996H16C17.1031 14.5996 18 13.7027 18 12.5996V3.59961H0ZM2 12.2652C2 11.3434 2.74688 10.5996 3.66563 10.5996H7.33437C8.25625 10.5996 9 11.3465 9 12.2652C9 12.4496 8.85 12.5996 8.66562 12.5996H2.33437C2.15 12.5996 2 12.4496 2 12.2652ZM5.5 5.59961C6.03043 5.59961 6.53914 5.81032 6.91421 6.1854C7.28929 6.56047 7.5 7.06918 7.5 7.59961C7.5 8.13004 7.28929 8.63875 6.91421 9.01382C6.53914 9.3889 6.03043 9.59961 5.5 9.59961C4.96957 9.59961 4.46086 9.3889 4.08579 9.01382C3.71071 8.63875 3.5 8.13004 3.5 7.59961C3.5 7.06918 3.71071 6.56047 4.08579 6.1854C4.46086 5.81032 4.96957 5.59961 5.5 5.59961ZM11 6.09961C11 5.82461 11.225 5.59961 11.5 5.59961H15.5C15.775 5.59961 16 5.82461 16 6.09961C16 6.37461 15.775 6.59961 15.5 6.59961H11.5C11.225 6.59961 11 6.37461 11 6.09961ZM11 8.09961C11 7.82461 11.225 7.59961 11.5 7.59961H15.5C15.775 7.59961 16 7.82461 16 8.09961C16 8.37461 15.775 8.59961 15.5 8.59961H11.5C11.225 8.59961 11 8.37461 11 8.09961ZM11 10.0996C11 9.82461 11.225 9.59961 11.5 9.59961H15.5C15.775 9.59961 16 9.82461 16 10.0996C16 10.3746 15.775 10.5996 15.5 10.5996H11.5C11.225 10.5996 11 10.3746 11 10.0996Z" fill="#9CA3AF"/>
</svg>
