<svg width="17" height="16" viewBox="0 0 17 16" fill="none" xmlns="http://www.w3.org/2000/svg">
<path d="M8.45996 16C10.5817 16 12.6165 15.1571 14.1168 13.6569C15.6171 12.1566 16.46 10.1217 16.46 8C16.46 5.87827 15.6171 3.84344 14.1168 2.34315C12.6165 0.842855 10.5817 0 8.45996 0C6.33823 0 4.3034 0.842855 2.80311 2.34315C1.30282 3.84344 0.459961 5.87827 0.459961 8C0.459961 10.1217 1.30282 12.1566 2.80311 13.6569C4.3034 15.1571 6.33823 16 8.45996 16ZM7.20996 10.5H7.95996V8.5H7.20996C6.79434 8.5 6.45996 8.16562 6.45996 7.75C6.45996 7.33437 6.79434 7 7.20996 7H8.70996C9.12559 7 9.45996 7.33437 9.45996 7.75V10.5H9.70996C10.1256 10.5 10.46 10.8344 10.46 11.25C10.46 11.6656 10.1256 12 9.70996 12H7.20996C6.79434 12 6.45996 11.6656 6.45996 11.25C6.45996 10.8344 6.79434 10.5 7.20996 10.5ZM8.45996 4C8.72518 4 8.97953 4.10536 9.16707 4.29289C9.3546 4.48043 9.45996 4.73478 9.45996 5C9.45996 5.26522 9.3546 5.51957 9.16707 5.70711C8.97953 5.89464 8.72518 6 8.45996 6C8.19474 6 7.94039 5.89464 7.75285 5.70711C7.56532 5.51957 7.45996 5.26522 7.45996 5C7.45996 4.73478 7.56532 4.48043 7.75285 4.29289C7.94039 4.10536 8.19474 4 8.45996 4Z" fill="#9CA3AF"/>
</svg>
