<svg width="28" height="35" viewBox="0 0 28 35" fill="none" xmlns="http://www.w3.org/2000/svg">
<path d="M13.9998 0.933594L0.666504 5.93359V16.0836C0.666504 24.5003 6.34984 32.3503 13.9998 34.2669C21.6498 32.3503 27.3332 24.5003 27.3332 16.0836V5.93359L13.9998 0.933594ZM13.9998 25.9336C9.39984 25.9336 5.6665 22.2003 5.6665 17.6003C5.6665 13.0003 9.39984 9.26693 13.9998 9.26693C18.5998 9.26693 22.3332 13.0003 22.3332 17.6003C22.3332 22.2003 18.5998 25.9336 13.9998 25.9336ZM13.9998 12.6003C11.2332 12.6003 8.99984 14.8336 8.99984 17.6003C8.99984 20.3669 11.2332 22.6003 13.9998 22.6003C16.7665 22.6003 18.9998 20.3669 18.9998 17.6003C18.9998 14.8336 16.7665 12.6003 13.9998 12.6003Z" fill="#0A3749"/>
</svg>
