<svg width="19" height="17" viewBox="0 0 19 17" fill="none" xmlns="http://www.w3.org/2000/svg">
<path d="M7.61465 1.53359L6.43652 1.97422C6.34277 2.00859 6.28027 2.09922 6.28027 2.19922C6.28027 2.29922 6.34277 2.38984 6.43652 2.42422L7.61465 2.86484L8.05527 4.04297C8.08965 4.13672 8.18027 4.19922 8.28027 4.19922C8.38027 4.19922 8.4709 4.13672 8.50527 4.04297L8.9459 2.86484L10.124 2.42422C10.2178 2.38984 10.2803 2.29922 10.2803 2.19922C10.2803 2.09922 10.2178 2.00859 10.124 1.97422L8.9459 1.53359L8.50527 0.355469C8.4709 0.261719 8.38027 0.199219 8.28027 0.199219C8.18027 0.199219 8.08965 0.261719 8.05527 0.355469L7.61465 1.53359ZM1.7209 12.5555C1.13652 13.1398 1.13652 14.0898 1.7209 14.6773L2.80215 15.7586C3.38652 16.343 4.33652 16.343 4.92402 15.7586L16.8396 3.83984C17.424 3.25547 17.424 2.30547 16.8396 1.71797L15.7584 0.639844C15.174 0.0554687 14.224 0.0554687 13.6365 0.639844L1.7209 12.5555ZM15.424 2.78047L12.1428 6.06172L11.4146 5.33359L14.6959 2.05234L15.424 2.78047ZM0.514648 3.86172C0.374023 3.91484 0.280273 4.04922 0.280273 4.19922C0.280273 4.34922 0.374023 4.48359 0.514648 4.53672L2.28027 5.19922L2.94277 6.96484C2.9959 7.10547 3.13027 7.19922 3.28027 7.19922C3.43027 7.19922 3.56465 7.10547 3.61777 6.96484L4.28027 5.19922L6.0459 4.53672C6.18652 4.48359 6.28027 4.34922 6.28027 4.19922C6.28027 4.04922 6.18652 3.91484 6.0459 3.86172L4.28027 3.19922L3.61777 1.43359C3.56465 1.29297 3.43027 1.19922 3.28027 1.19922C3.13027 1.19922 2.9959 1.29297 2.94277 1.43359L2.28027 3.19922L0.514648 3.86172ZM11.5146 11.8617C11.374 11.9148 11.2803 12.0492 11.2803 12.1992C11.2803 12.3492 11.374 12.4836 11.5146 12.5367L13.2803 13.1992L13.9428 14.9648C13.9959 15.1055 14.1303 15.1992 14.2803 15.1992C14.4303 15.1992 14.5646 15.1055 14.6178 14.9648L15.2803 13.1992L17.0459 12.5367C17.1865 12.4836 17.2803 12.3492 17.2803 12.1992C17.2803 12.0492 17.1865 11.9148 17.0459 11.8617L15.2803 11.1992L14.6178 9.43359C14.5646 9.29297 14.4303 9.19922 14.2803 9.19922C14.1303 9.19922 13.9959 9.29297 13.9428 9.43359L13.2803 11.1992L11.5146 11.8617Z" fill="white"/>
</svg>
