<svg width="18" height="17" viewBox="0 0 18 17" fill="none" xmlns="http://www.w3.org/2000/svg">
<path d="M17.9937 8.18359C17.9937 8.74609 17.525 9.18672 16.9937 9.18672H15.9937L16.0156 14.193C16.0156 14.2773 16.0094 14.3617 16 14.4461V14.9492C16 15.6398 15.4406 16.1992 14.75 16.1992H14.25C14.2156 16.1992 14.1813 16.1992 14.1469 16.1961C14.1031 16.1992 14.0594 16.1992 14.0156 16.1992H13H12.25C11.5594 16.1992 11 15.6398 11 14.9492V14.1992V12.1992C11 11.6461 10.5531 11.1992 10 11.1992H8C7.44688 11.1992 7 11.6461 7 12.1992V14.1992V14.9492C7 15.6398 6.44063 16.1992 5.75 16.1992H5H4.00313C3.95625 16.1992 3.90937 16.1961 3.8625 16.193C3.825 16.1961 3.7875 16.1992 3.75 16.1992H3.25C2.55938 16.1992 2 15.6398 2 14.9492V11.4492C2 11.4211 2 11.3898 2.00312 11.3617V9.18672H1C0.4375 9.18672 0 8.74922 0 8.18359C0 7.90234 0.09375 7.65234 0.3125 7.43359L8.325 0.449219C8.54375 0.230469 8.79375 0.199219 9.0125 0.199219C9.23125 0.199219 9.48125 0.261719 9.66875 0.417969L17.65 7.43359C17.9 7.65234 18.025 7.90234 17.9937 8.18359Z" fill="#9CA3AF"/>
</svg>
