<svg width="41" height="40" viewBox="0 0 41 40" fill="none" xmlns="http://www.w3.org/2000/svg">
<rect x="0.199951" width="40" height="40" rx="20" fill="#FEF9C3"/>
<path d="M20.2 11.5996C22.3217 11.5996 24.3565 12.4425 25.8568 13.9428C27.3571 15.443 28.2 17.4779 28.2 19.5996C28.2 21.7213 27.3571 23.7562 25.8568 25.2565C24.3565 26.7568 22.3217 27.5996 20.2 27.5996C18.0782 27.5996 16.0434 26.7568 14.5431 25.2565C13.0428 23.7562 12.2 21.7213 12.2 19.5996C12.2 17.4779 13.0428 15.443 14.5431 13.9428C16.0434 12.4425 18.0782 11.5996 20.2 11.5996ZM19.45 15.3496V19.5996C19.45 19.8496 19.575 20.084 19.7843 20.2246L22.7843 22.2246C23.1281 22.4559 23.5937 22.3621 23.825 22.0152C24.0562 21.6684 23.9625 21.2059 23.6156 20.9746L20.95 19.1996V15.3496C20.95 14.934 20.6156 14.5996 20.2 14.5996C19.7843 14.5996 19.45 14.934 19.45 15.3496Z" fill="#F59E0B"/>
</svg>
