<svg width="41" height="40" viewBox="0 0 41 40" fill="none" xmlns="http://www.w3.org/2000/svg">
<rect x="0.199951" width="40" height="40" rx="20" fill="#F3E8FF"/>
<path d="M15.7 11.5996C14.8718 11.5996 14.2 12.2715 14.2 13.0996V26.0996C14.2 26.9277 14.8718 27.5996 15.7 27.5996H18.7V25.0996C18.7 24.2715 19.3718 23.5996 20.2 23.5996C21.0281 23.5996 21.7 24.2715 21.7 25.0996V27.5996H24.7C25.5281 27.5996 26.2 26.9277 26.2 26.0996V13.0996C26.2 12.2715 25.5281 11.5996 24.7 11.5996H15.7ZM16.2 19.0996C16.2 18.8246 16.425 18.5996 16.7 18.5996H17.7C17.975 18.5996 18.2 18.8246 18.2 19.0996V20.0996C18.2 20.3746 17.975 20.5996 17.7 20.5996H16.7C16.425 20.5996 16.2 20.3746 16.2 20.0996V19.0996ZM19.7 18.5996H20.7C20.975 18.5996 21.2 18.8246 21.2 19.0996V20.0996C21.2 20.3746 20.975 20.5996 20.7 20.5996H19.7C19.425 20.5996 19.2 20.3746 19.2 20.0996V19.0996C19.2 18.8246 19.425 18.5996 19.7 18.5996ZM22.2 19.0996C22.2 18.8246 22.425 18.5996 22.7 18.5996H23.7C23.975 18.5996 24.2 18.8246 24.2 19.0996V20.0996C24.2 20.3746 23.975 20.5996 23.7 20.5996H22.7C22.425 20.5996 22.2 20.3746 22.2 20.0996V19.0996ZM16.7 14.5996H17.7C17.975 14.5996 18.2 14.8246 18.2 15.0996V16.0996C18.2 16.3746 17.975 16.5996 17.7 16.5996H16.7C16.425 16.5996 16.2 16.3746 16.2 16.0996V15.0996C16.2 14.8246 16.425 14.5996 16.7 14.5996ZM19.2 15.0996C19.2 14.8246 19.425 14.5996 19.7 14.5996H20.7C20.975 14.5996 21.2 14.8246 21.2 15.0996V16.0996C21.2 16.3746 20.975 16.5996 20.7 16.5996H19.7C19.425 16.5996 19.2 16.3746 19.2 16.0996V15.0996ZM22.7 14.5996H23.7C23.975 14.5996 24.2 14.8246 24.2 15.0996V16.0996C24.2 16.3746 23.975 16.5996 23.7 16.5996H22.7C22.425 16.5996 22.2 16.3746 22.2 16.0996V15.0996C22.2 14.8246 22.425 14.5996 22.7 14.5996Z" fill="#9333EA"/>
</svg>
