<svg width="41" height="40" viewBox="0 0 41 40" fill="none" xmlns="http://www.w3.org/2000/svg">
<rect x="0.199951" width="40" height="40" rx="20" fill="#DBEAFE"/>
<path d="M14.7 11.5996C15.363 11.5996 15.9989 11.863 16.4677 12.3318C16.9366 12.8007 17.2 13.4366 17.2 14.0996C17.2 14.7627 16.9366 15.3985 16.4677 15.8674C15.9989 16.3362 15.363 16.5996 14.7 16.5996C14.0369 16.5996 13.401 16.3362 12.9322 15.8674C12.4633 15.3985 12.2 14.7627 12.2 14.0996C12.2 13.4366 12.4633 12.8007 12.9322 12.3318C13.401 11.863 14.0369 11.5996 14.7 11.5996ZM26.2 11.5996C26.863 11.5996 27.4989 11.863 27.9677 12.3318C28.4366 12.8007 28.7 13.4366 28.7 14.0996C28.7 14.7627 28.4366 15.3985 27.9677 15.8674C27.4989 16.3362 26.863 16.5996 26.2 16.5996C25.5369 16.5996 24.901 16.3362 24.4322 15.8674C23.9633 15.3985 23.7 14.7627 23.7 14.0996C23.7 13.4366 23.9633 12.8007 24.4322 12.3318C24.901 11.863 25.5369 11.5996 26.2 11.5996ZM10.2 20.934C10.2 19.0934 11.6937 17.5996 13.5343 17.5996H14.8687C15.3656 17.5996 15.8375 17.709 16.2625 17.9027C16.2218 18.1277 16.2031 18.3621 16.2031 18.5996C16.2031 19.7934 16.7281 20.8652 17.5562 21.5996C17.55 21.5996 17.5437 21.5996 17.5343 21.5996H10.8656C10.5 21.5996 10.2 21.2996 10.2 20.934ZM22.8656 21.5996C22.8593 21.5996 22.8531 21.5996 22.8437 21.5996C23.675 20.8652 24.1968 19.7934 24.1968 18.5996C24.1968 18.3621 24.175 18.1309 24.1375 17.9027C24.5625 17.7059 25.0343 17.5996 25.5312 17.5996H26.8656C28.7062 17.5996 30.2 19.0934 30.2 20.934C30.2 21.3027 29.9 21.5996 29.5343 21.5996H22.8656ZM17.2 18.5996C17.2 17.804 17.516 17.0409 18.0786 16.4783C18.6412 15.9157 19.4043 15.5996 20.2 15.5996C20.9956 15.5996 21.7587 15.9157 22.3213 16.4783C22.8839 17.0409 23.2 17.804 23.2 18.5996C23.2 19.3953 22.8839 20.1583 22.3213 20.7209C21.7587 21.2835 20.9956 21.5996 20.2 21.5996C19.4043 21.5996 18.6412 21.2835 18.0786 20.7209C17.516 20.1583 17.2 19.3953 17.2 18.5996ZM14.2 26.7652C14.2 24.4652 16.0656 22.5996 18.3656 22.5996H22.0343C24.3343 22.5996 26.2 24.4652 26.2 26.7652C26.2 27.2246 25.8281 27.5996 25.3656 27.5996H15.0343C14.575 27.5996 14.2 27.2277 14.2 26.7652Z" fill="#0A3749"/>
</svg>
