<svg width="41" height="40" viewBox="0 0 41 40" fill="none" xmlns="http://www.w3.org/2000/svg">
<rect x="0.199951" width="40" height="40" rx="20" fill="#DCFCE7"/>
<path d="M20.2 27.5996C22.3217 27.5996 24.3565 26.7568 25.8568 25.2565C27.3571 23.7562 28.2 21.7213 28.2 19.5996C28.2 17.4779 27.3571 15.443 25.8568 13.9428C24.3565 12.4425 22.3217 11.5996 20.2 11.5996C18.0782 11.5996 16.0434 12.4425 14.5431 13.9428C13.0428 15.443 12.2 17.4779 12.2 19.5996C12.2 21.7213 13.0428 23.7562 14.5431 25.2565C16.0434 26.7568 18.0782 27.5996 20.2 27.5996ZM23.7312 18.1309L19.7312 22.1309C19.4375 22.4246 18.9625 22.4246 18.6718 22.1309L16.6718 20.1309C16.3781 19.8371 16.3781 19.3621 16.6718 19.0715C16.9656 18.7809 17.4406 18.7777 17.7312 19.0715L19.2 20.5402L22.6687 17.0684C22.9625 16.7746 23.4375 16.7746 23.7281 17.0684C24.0187 17.3621 24.0218 17.8371 23.7281 18.1277L23.7312 18.1309Z" fill="#10B981"/>
</svg>
