<svg width="18" height="17" viewBox="0 0 18 17" fill="none" xmlns="http://www.w3.org/2000/svg">
<path d="M9 17C11.3869 17 13.6761 16.1045 15.364 14.5104C17.0518 12.9163 18 10.7543 18 8.5C18 6.24566 17.0518 4.08365 15.364 2.48959C13.6761 0.895533 11.3869 0 9 0C6.61305 0 4.32387 0.895533 2.63604 2.48959C0.948212 4.08365 0 6.24566 0 8.5C0 10.7543 0.948212 12.9163 2.63604 14.5104C4.32387 16.1045 6.61305 17 9 17ZM7.59375 11.1562H8.4375V9.03125H7.59375C7.12617 9.03125 6.75 8.67598 6.75 8.23438C6.75 7.79277 7.12617 7.4375 7.59375 7.4375H9.28125C9.74883 7.4375 10.125 7.79277 10.125 8.23438V11.1562H10.4062C10.8738 11.1562 11.25 11.5115 11.25 11.9531C11.25 12.3947 10.8738 12.75 10.4062 12.75H7.59375C7.12617 12.75 6.75 12.3947 6.75 11.9531C6.75 11.5115 7.12617 11.1562 7.59375 11.1562ZM9 4.25C9.29837 4.25 9.58452 4.36194 9.7955 4.5612C10.0065 4.76046 10.125 5.03071 10.125 5.3125C10.125 5.59429 10.0065 5.86454 9.7955 6.0638C9.58452 6.26306 9.29837 6.375 9 6.375C8.70163 6.375 8.41548 6.26306 8.2045 6.0638C7.99353 5.86454 7.875 5.59429 7.875 5.3125C7.875 5.03071 7.99353 4.76046 8.2045 4.5612C8.41548 4.36194 8.70163 4.25 9 4.25Z" fill="#E5E7EB"/>
</svg>
