<svg width="18" height="21" viewBox="0 0 18 21" fill="none" xmlns="http://www.w3.org/2000/svg">
<path d="M5.625 5.92578V7.80078H11.875V5.92578C11.875 4.19922 10.4766 2.80078 8.75 2.80078C7.02344 2.80078 5.625 4.19922 5.625 5.92578ZM3.125 7.80078V5.92578C3.125 2.82031 5.64453 0.300781 8.75 0.300781C11.8555 0.300781 14.375 2.82031 14.375 5.92578V7.80078H15C16.3789 7.80078 17.5 8.92188 17.5 10.3008V17.8008C17.5 19.1797 16.3789 20.3008 15 20.3008H2.5C1.12109 20.3008 0 19.1797 0 17.8008V10.3008C0 8.92188 1.12109 7.80078 2.5 7.80078H3.125Z" fill="#0A3749"/>
</svg>
