<svg width="30" height="31" viewBox="0 0 30 31" fill="none" xmlns="http://www.w3.org/2000/svg">
<path d="M13.6279 0.656738C14.501 0.252441 15.5088 0.252441 16.3818 0.656738L29.1904 6.57471C29.6885 6.80322 30.0049 7.30127 30.0049 7.85205C30.0049 8.40283 29.6885 8.90088 29.1904 9.1294L16.3818 15.0474C15.5088 15.4517 14.501 15.4517 13.6279 15.0474L0.819336 9.1294C0.321289 8.89502 0.00488281 8.39697 0.00488281 7.85205C0.00488281 7.30713 0.321289 6.80322 0.819336 6.57471L13.6279 0.656738ZM26.0732 12.6333L29.1904 14.0747C29.6885 14.3032 30.0049 14.8013 30.0049 15.3521C30.0049 15.9028 29.6885 16.4009 29.1904 16.6294L16.3818 22.5474C15.5088 22.9517 14.501 22.9517 13.6279 22.5474L0.819336 16.6294C0.321289 16.395 0.00488281 15.897 0.00488281 15.3521C0.00488281 14.8071 0.321289 14.3032 0.819336 14.0747L3.93652 12.6333L12.8428 16.7466C14.2139 17.3794 15.7959 17.3794 17.167 16.7466L26.0732 12.6333ZM17.167 24.2466L26.0732 20.1333L29.1904 21.5747C29.6885 21.8032 30.0049 22.3013 30.0049 22.8521C30.0049 23.4028 29.6885 23.9009 29.1904 24.1294L16.3818 30.0474C15.5088 30.4517 14.501 30.4517 13.6279 30.0474L0.819336 24.1294C0.321289 23.895 0.00488281 23.397 0.00488281 22.8521C0.00488281 22.3071 0.321289 21.8032 0.819336 21.5747L3.93652 20.1333L12.8428 24.2466C14.2139 24.8794 15.7959 24.8794 17.167 24.2466Z" fill="#0A3749"/>
</svg>
