<svg width="17" height="17" viewBox="0 0 17 17" fill="none" xmlns="http://www.w3.org/2000/svg">
<path d="M12.1094 3.80938L15.9469 7.64687C16.1719 7.87187 16.3 8.18125 16.3 8.5C16.3 8.81875 16.1719 9.12812 15.9469 9.35312L12.1094 13.1906C11.9094 13.3906 11.6407 13.5 11.3594 13.5C10.775 13.5 10.3 13.025 10.3 12.4406V10.5H6.30005C5.74692 10.5 5.30005 10.0531 5.30005 9.5V7.5C5.30005 6.94688 5.74692 6.5 6.30005 6.5H10.3V4.55937C10.3 3.975 10.775 3.5 11.3594 3.5C11.6407 3.5 11.9094 3.6125 12.1094 3.80938ZM5.30005 3.5H3.30005C2.74692 3.5 2.30005 3.94688 2.30005 4.5V12.5C2.30005 13.0531 2.74692 13.5 3.30005 13.5H5.30005C5.85317 13.5 6.30005 13.9469 6.30005 14.5C6.30005 15.0531 5.85317 15.5 5.30005 15.5H3.30005C1.6438 15.5 0.300049 14.1562 0.300049 12.5V4.5C0.300049 2.84375 1.6438 1.5 3.30005 1.5H5.30005C5.85317 1.5 6.30005 1.94687 6.30005 2.5C6.30005 3.05313 5.85317 3.5 5.30005 3.5Z" fill="white"/>
</svg>
