<svg width="16" height="13" viewBox="0 0 16 13" fill="none" xmlns="http://www.w3.org/2000/svg">
<path d="M2 1.90039C1.725 1.90039 1.5 2.12539 1.5 2.40039V3.09102L6.89062 7.51602C7.5375 8.04727 8.46562 8.04727 9.1125 7.51602L14.5 3.09102V2.40039C14.5 2.12539 14.275 1.90039 14 1.90039H2ZM1.5 5.03164V10.4004C1.5 10.6754 1.725 10.9004 2 10.9004H14C14.275 10.9004 14.5 10.6754 14.5 10.4004V5.03164L10.0625 8.67539C8.8625 9.65977 7.13438 9.65977 5.9375 8.67539L1.5 5.03164ZM0 2.40039C0 1.29727 0.896875 0.400391 2 0.400391H14C15.1031 0.400391 16 1.29727 16 2.40039V10.4004C16 11.5035 15.1031 12.4004 14 12.4004H2C0.896875 12.4004 0 11.5035 0 10.4004V2.40039Z" fill="#9CA3AF"/>
</svg>
