<svg width="20" height="17" viewBox="0 0 20 17" fill="none" xmlns="http://www.w3.org/2000/svg">
<path d="M3 4.40039C3 3.33952 3.42143 2.32211 4.17157 1.57196C4.92172 0.821818 5.93913 0.400391 7 0.400391C8.06087 0.400391 9.07828 0.821818 9.82843 1.57196C10.5786 2.32211 11 3.33952 11 4.40039C11 5.46126 10.5786 6.47867 9.82843 7.22882C9.07828 7.97896 8.06087 8.40039 7 8.40039C5.93913 8.40039 4.92172 7.97896 4.17157 7.22882C3.42143 6.47867 3 5.46126 3 4.40039ZM0 15.4723C0 12.3941 2.49375 9.90039 5.57188 9.90039H8.42813C11.5063 9.90039 14 12.3941 14 15.4723C14 15.9848 13.5844 16.4004 13.0719 16.4004H0.928125C0.415625 16.4004 0 15.9848 0 15.4723ZM19.5312 5.93164L15.5312 9.93164C15.2375 10.2254 14.7625 10.2254 14.4719 9.93164L12.4719 7.93164C12.1781 7.63789 12.1781 7.16289 12.4719 6.87227C12.7656 6.58164 13.2406 6.57852 13.5312 6.87227L15 8.34102L18.4688 4.86914C18.7625 4.57539 19.2375 4.57539 19.5281 4.86914C19.8188 5.16289 19.8219 5.63789 19.5281 5.92852L19.5312 5.93164Z" fill="#9CA3AF"/>
</svg>
