<svg width="41" height="41" viewBox="0 0 41 41" fill="none" xmlns="http://www.w3.org/2000/svg">
<rect x="0.800049" y="0.701172" width="40" height="40" rx="20" fill="#F3E8FF"/>
<path d="M12.8 15.3008C12.8 14.1977 13.6969 13.3008 14.8 13.3008H26.8C27.9032 13.3008 28.8 14.1977 28.8 15.3008V25.3008C28.8 26.4039 27.9032 27.3008 26.8 27.3008H14.8C13.6969 27.3008 12.8 26.4039 12.8 25.3008V15.3008ZM22.9188 18.6289C22.7782 18.4227 22.5469 18.3008 22.3 18.3008C22.0532 18.3008 21.8188 18.4227 21.6813 18.6289L18.9625 22.6164L18.1344 21.582C17.9907 21.4039 17.775 21.3008 17.55 21.3008C17.325 21.3008 17.1063 21.4039 16.9657 21.582L14.9657 24.082C14.7844 24.307 14.75 24.6164 14.875 24.8758C15 25.1352 15.2625 25.3008 15.55 25.3008H18.55H19.55H26.05C26.3282 25.3008 26.5844 25.1477 26.7125 24.9008C26.8407 24.6539 26.825 24.357 26.6688 24.1289L22.9188 18.6289ZM16.3 18.3008C16.6979 18.3008 17.0794 18.1427 17.3607 17.8614C17.642 17.5801 17.8 17.1986 17.8 16.8008C17.8 16.403 17.642 16.0214 17.3607 15.7401C17.0794 15.4588 16.6979 15.3008 16.3 15.3008C15.9022 15.3008 15.5207 15.4588 15.2394 15.7401C14.9581 16.0214 14.8 16.403 14.8 16.8008C14.8 17.1986 14.9581 17.5801 15.2394 17.8614C15.5207 18.1427 15.9022 18.3008 16.3 18.3008Z" fill="#A855F7"/>
</svg>
