<svg width="16" height="17" viewBox="0 0 16 17" fill="none" xmlns="http://www.w3.org/2000/svg">
<path d="M8 2.59961C4.6875 2.59961 2 5.28711 2 8.59961C2 11.9121 4.6875 14.5996 8 14.5996C8.55313 14.5996 9 15.0465 9 15.5996C9 16.1527 8.55313 16.5996 8 16.5996C3.58125 16.5996 0 13.0184 0 8.59961C0 4.18086 3.58125 0.599609 8 0.599609C12.4187 0.599609 16 4.18086 16 8.59961V9.59961C16 11.2559 14.6562 12.5996 13 12.5996C12.0844 12.5996 11.2625 12.1871 10.7125 11.5402C10 12.1965 9.04688 12.5996 8 12.5996C5.79063 12.5996 4 10.809 4 8.59961C4 6.39023 5.79063 4.59961 8 4.59961C8.87187 4.59961 9.67813 4.87773 10.3344 5.35273C10.5125 5.19648 10.7437 5.09961 11 5.09961C11.5531 5.09961 12 5.54648 12 6.09961V8.59961V9.59961C12 10.1527 12.4469 10.5996 13 10.5996C13.5531 10.5996 14 10.1527 14 9.59961V8.59961C14 5.28711 11.3125 2.59961 8 2.59961ZM10 8.59961C10 8.06918 9.78929 7.56047 9.41421 7.1854C9.03914 6.81032 8.53043 6.59961 8 6.59961C7.46957 6.59961 6.96086 6.81032 6.58579 7.1854C6.21071 7.56047 6 8.06918 6 8.59961C6 9.13004 6.21071 9.63875 6.58579 10.0138C6.96086 10.3889 7.46957 10.5996 8 10.5996C8.53043 10.5996 9.03914 10.3889 9.41421 10.0138C9.78929 9.63875 10 9.13004 10 8.59961Z" fill="#6B7280"/>
</svg>
