<svg width="17" height="17" viewBox="0 0 17 17" fill="none" xmlns="http://www.w3.org/2000/svg">
<path d="M5.4334 1.5948C5.74277 1.87293 5.76777 2.3448 5.48965 2.65418L3.23965 5.15418C3.10215 5.3073 2.9084 5.39793 2.70215 5.40105C2.4959 5.40418 2.29902 5.32605 2.15215 5.1823L0.899023 3.9323C0.608398 3.63855 0.608398 3.16355 0.899023 2.8698C1.18965 2.57605 1.66777 2.57605 1.9584 2.8698L2.64902 3.56043L4.3709 1.64793C4.64902 1.33855 5.1209 1.31355 5.43027 1.59168L5.4334 1.5948ZM5.4334 6.5948C5.74277 6.87293 5.76777 7.3448 5.48965 7.65418L3.23965 10.1542C3.10215 10.3073 2.9084 10.3979 2.70215 10.4011C2.4959 10.4042 2.29902 10.3261 2.15215 10.1823L0.899023 8.9323C0.605273 8.63855 0.605273 8.16355 0.899023 7.87293C1.19277 7.5823 1.66777 7.57918 1.9584 7.87293L2.64902 8.56355L4.3709 6.65105C4.64902 6.34168 5.1209 6.31668 5.43027 6.5948H5.4334ZM7.68027 3.40105C7.68027 2.84793 8.12715 2.40105 8.68027 2.40105H15.6803C16.2334 2.40105 16.6803 2.84793 16.6803 3.40105C16.6803 3.95418 16.2334 4.40105 15.6803 4.40105H8.68027C8.12715 4.40105 7.68027 3.95418 7.68027 3.40105ZM7.68027 8.40105C7.68027 7.84793 8.12715 7.40105 8.68027 7.40105H15.6803C16.2334 7.40105 16.6803 7.84793 16.6803 8.40105C16.6803 8.95418 16.2334 9.40105 15.6803 9.40105H8.68027C8.12715 9.40105 7.68027 8.95418 7.68027 8.40105ZM5.68027 13.4011C5.68027 12.8479 6.12715 12.4011 6.68027 12.4011H15.6803C16.2334 12.4011 16.6803 12.8479 16.6803 13.4011C16.6803 13.9542 16.2334 14.4011 15.6803 14.4011H6.68027C6.12715 14.4011 5.68027 13.9542 5.68027 13.4011ZM2.18027 11.9011C2.5781 11.9011 2.95963 12.0591 3.24093 12.3404C3.52224 12.6217 3.68027 13.0032 3.68027 13.4011C3.68027 13.7989 3.52224 14.1804 3.24093 14.4617C2.95963 14.743 2.5781 14.9011 2.18027 14.9011C1.78245 14.9011 1.40092 14.743 1.11961 14.4617C0.838309 14.1804 0.680273 13.7989 0.680273 13.4011C0.680273 13.0032 0.838309 12.6217 1.11961 12.3404C1.40092 12.0591 1.78245 11.9011 2.18027 11.9011Z" fill="#6B7280"/>
</svg>
