<svg width="41" height="41" viewBox="0 0 41 41" fill="none" xmlns="http://www.w3.org/2000/svg">
<rect x="0.800049" y="0.101562" width="40" height="40" rx="20" fill="#FEE2E2"/>
<path d="M21.8 13.7012C21.8 13.148 21.3532 12.7012 20.8 12.7012C20.2469 12.7012 19.8 13.148 19.8 13.7012V21.7012C19.8 22.2543 20.2469 22.7012 20.8 22.7012C21.3532 22.7012 21.8 22.2543 21.8 21.7012V13.7012ZM20.8 26.7012C21.1316 26.7012 21.4495 26.5695 21.6839 26.3351C21.9184 26.1006 22.05 25.7827 22.05 25.4512C22.05 25.1197 21.9184 24.8017 21.6839 24.5673C21.4495 24.3329 21.1316 24.2012 20.8 24.2012C20.4685 24.2012 20.1506 24.3329 19.9162 24.5673C19.6817 24.8017 19.55 25.1197 19.55 25.4512C19.55 25.7827 19.6817 26.1006 19.9162 26.3351C20.1506 26.5695 20.4685 26.7012 20.8 26.7012Z" fill="#EF4444"/>
</svg>
