<svg width="19" height="15" viewBox="0 0 19 15" fill="none" xmlns="http://www.w3.org/2000/svg">
<path d="M9.1999 2.30078C7.1624 2.30078 5.4874 3.22578 4.20303 4.41641C2.9999 5.53516 2.16865 6.86328 1.74365 7.80078C2.16865 8.73828 2.9999 10.0664 4.1999 11.1852C5.4874 12.3758 7.1624 13.3008 9.1999 13.3008C11.2374 13.3008 12.9124 12.3758 14.1968 11.1852C15.3999 10.0664 16.2312 8.73828 16.6562 7.80078C16.2312 6.86328 15.3999 5.53516 14.1999 4.41641C12.9124 3.22578 11.2374 2.30078 9.1999 2.30078ZM3.18115 3.31953C4.65303 1.95078 6.6749 0.800781 9.1999 0.800781C11.7249 0.800781 13.7468 1.95078 15.2187 3.31953C16.6812 4.67891 17.6593 6.30078 18.1249 7.41641C18.228 7.66328 18.228 7.93828 18.1249 8.18516C17.6593 9.30078 16.6812 10.9258 15.2187 12.282C13.7468 13.6508 11.7249 14.8008 9.1999 14.8008C6.6749 14.8008 4.65303 13.6508 3.18115 12.282C1.71865 10.9258 0.740527 9.30078 0.278027 8.18516C0.174902 7.93828 0.174902 7.66328 0.278027 7.41641C0.740527 6.30078 1.71865 4.67578 3.18115 3.31953ZM9.1999 10.3008C10.5812 10.3008 11.6999 9.18203 11.6999 7.80078C11.6999 6.41953 10.5812 5.30078 9.1999 5.30078C9.17803 5.30078 9.15928 5.30078 9.1374 5.30078C9.17803 5.46016 9.1999 5.62891 9.1999 5.80078C9.1999 6.90391 8.30303 7.80078 7.1999 7.80078C7.02803 7.80078 6.85928 7.77891 6.6999 7.73828C6.6999 7.76016 6.6999 7.77891 6.6999 7.80078C6.6999 9.18203 7.81865 10.3008 9.1999 10.3008ZM9.1999 3.80078C10.2608 3.80078 11.2782 4.22221 12.0283 4.97235C12.7785 5.7225 13.1999 6.73992 13.1999 7.80078C13.1999 8.86165 12.7785 9.87906 12.0283 10.6292C11.2782 11.3794 10.2608 11.8008 9.1999 11.8008C8.13904 11.8008 7.12162 11.3794 6.37148 10.6292C5.62133 9.87906 5.1999 8.86165 5.1999 7.80078C5.1999 6.73992 5.62133 5.7225 6.37148 4.97235C7.12162 4.22221 8.13904 3.80078 9.1999 3.80078Z" fill="#6B7280"/>
</svg>
