<svg width="8" height="10" viewBox="0 0 8 10" fill="none" xmlns="http://www.w3.org/2000/svg">
<path d="M1.43506 0.201172C0.813965 0.201172 0.310059 0.705078 0.310059 1.32617V8.07617C0.310059 8.69727 0.813965 9.20117 1.43506 9.20117H2.18506C2.80615 9.20117 3.31006 8.69727 3.31006 8.07617V1.32617C3.31006 0.705078 2.80615 0.201172 2.18506 0.201172H1.43506ZM5.93506 0.201172C5.31396 0.201172 4.81006 0.705078 4.81006 1.32617V8.07617C4.81006 8.69727 5.31396 9.20117 5.93506 9.20117H6.68506C7.30615 9.20117 7.81006 8.69727 7.81006 8.07617V1.32617C7.81006 0.705078 7.30615 0.201172 6.68506 0.201172H5.93506Z" fill="#4B5563"/>
</svg>
