<svg width="8" height="10" viewBox="0 0 8 10" fill="none" xmlns="http://www.w3.org/2000/svg">
<path d="M1.21484 0.601562C0.59375 0.601562 0.0898438 1.10547 0.0898438 1.72656V8.47656C0.0898438 9.09766 0.59375 9.60156 1.21484 9.60156H1.96484C2.58594 9.60156 3.08984 9.09766 3.08984 8.47656V1.72656C3.08984 1.10547 2.58594 0.601562 1.96484 0.601562H1.21484ZM5.71484 0.601562C5.09375 0.601562 4.58984 1.10547 4.58984 1.72656V8.47656C4.58984 9.09766 5.09375 9.60156 5.71484 9.60156H6.46484C7.08594 9.60156 7.58984 9.09766 7.58984 8.47656V1.72656C7.58984 1.10547 7.08594 0.601562 6.46484 0.601562H5.71484Z" fill="#EF4444"/>
</svg>
