<svg width="20" height="19" viewBox="0 0 20 19" fill="none" xmlns="http://www.w3.org/2000/svg">
<path d="M0 3.05078C0 1.67188 1.12109 0.550781 2.5 0.550781H17.5C18.8789 0.550781 20 1.67188 20 3.05078V15.5508C20 16.9297 18.8789 18.0508 17.5 18.0508H2.5C1.12109 18.0508 0 16.9297 0 15.5508V3.05078ZM12.6484 7.21094C12.4727 6.95312 12.1836 6.80078 11.875 6.80078C11.5664 6.80078 11.2734 6.95312 11.1016 7.21094L7.70312 12.1953L6.66797 10.9023C6.48828 10.6797 6.21875 10.5508 5.9375 10.5508C5.65625 10.5508 5.38281 10.6797 5.20703 10.9023L2.70703 14.0273C2.48047 14.3086 2.4375 14.6953 2.59375 15.0195C2.75 15.3438 3.07812 15.5508 3.4375 15.5508H7.1875H8.4375H16.5625C16.9102 15.5508 17.2305 15.3594 17.3906 15.0508C17.5508 14.7422 17.5312 14.3711 17.3359 14.0859L12.6484 7.21094ZM4.375 6.80078C4.87228 6.80078 5.34919 6.60324 5.70083 6.25161C6.05246 5.89998 6.25 5.42306 6.25 4.92578C6.25 4.4285 6.05246 3.95159 5.70083 3.59996C5.34919 3.24833 4.87228 3.05078 4.375 3.05078C3.87772 3.05078 3.40081 3.24833 3.04917 3.59996C2.69754 3.95159 2.5 4.4285 2.5 4.92578C2.5 5.42306 2.69754 5.89998 3.04917 6.25161C3.40081 6.60324 3.87772 6.80078 4.375 6.80078Z" fill="#0C4559"/>
</svg>
