<svg width="24" height="16" viewBox="0 0 24 16" fill="none" xmlns="http://www.w3.org/2000/svg">
<path d="M0.75 3.30078C0.75 1.92188 1.87109 0.800781 3.25 0.800781H13.25C14.6289 0.800781 15.75 1.92188 15.75 3.30078V13.3008C15.75 14.6797 14.6289 15.8008 13.25 15.8008H3.25C1.87109 15.8008 0.75 14.6797 0.75 13.3008V3.30078ZM22.5898 2.19922C22.9961 2.41797 23.25 2.83984 23.25 3.30078V13.3008C23.25 13.7617 22.9961 14.1836 22.5898 14.4023C22.1836 14.6211 21.6914 14.5977 21.3047 14.3398L17.5547 11.8398L17 11.4688V10.8008V5.80078V5.13281L17.5547 4.76172L21.3047 2.26172C21.6875 2.00781 22.1797 1.98047 22.5898 2.19922Z" fill="#0C4559"/>
</svg>
