<svg width="16" height="17" viewBox="0 0 16 17" fill="none" xmlns="http://www.w3.org/2000/svg">
<path d="M5.15312 1.36906C4.9125 0.787814 4.27812 0.478439 3.67188 0.644064L0.921875 1.39406C0.378125 1.54406 0 2.03781 0 2.60031C0 10.3316 6.26875 16.6003 14 16.6003C14.5625 16.6003 15.0563 16.2222 15.2063 15.6784L15.9563 12.9284C16.1219 12.3222 15.8125 11.6878 15.2312 11.4472L12.2312 10.1972C11.7219 9.98469 11.1313 10.1316 10.7844 10.5597L9.52188 12.1003C7.32188 11.0597 5.54063 9.27844 4.5 7.07844L6.04063 5.81906C6.46875 5.46906 6.61562 4.88156 6.40312 4.37219L5.15312 1.37219V1.36906Z" fill="#9CA3AF"/>
</svg>
