<svg width="15" height="17" viewBox="0 0 15 17" fill="none" xmlns="http://www.w3.org/2000/svg">
<path d="M8.31006 2.7002C8.31006 2.14707 7.86318 1.7002 7.31006 1.7002C6.75693 1.7002 6.31006 2.14707 6.31006 2.7002V7.2002H1.81006C1.25693 7.2002 0.810059 7.64707 0.810059 8.2002C0.810059 8.75332 1.25693 9.2002 1.81006 9.2002H6.31006V13.7002C6.31006 14.2533 6.75693 14.7002 7.31006 14.7002C7.86318 14.7002 8.31006 14.2533 8.31006 13.7002V9.2002H12.8101C13.3632 9.2002 13.8101 8.75332 13.8101 8.2002C13.8101 7.64707 13.3632 7.2002 12.8101 7.2002H8.31006V2.7002Z" fill="white"/>
</svg>
