<svg width="20" height="20" viewBox="0 0 20 20" fill="none" xmlns="http://www.w3.org/2000/svg">
<path d="M11.5 1.55078C11.5 0.721094 10.8297 0.0507812 10 0.0507812C9.17031 0.0507812 8.5 0.721094 8.5 1.55078V8.30078H1.75C0.920312 8.30078 0.25 8.97109 0.25 9.80078C0.25 10.6305 0.920312 11.3008 1.75 11.3008H8.5V18.0508C8.5 18.8805 9.17031 19.5508 10 19.5508C10.8297 19.5508 11.5 18.8805 11.5 18.0508V11.3008H18.25C19.0797 11.3008 19.75 10.6305 19.75 9.80078C19.75 8.97109 19.0797 8.30078 18.25 8.30078H11.5V1.55078Z" fill="#6B7280"/>
</svg>
