<svg width="15" height="17" viewBox="0 0 15 17" fill="none" xmlns="http://www.w3.org/2000/svg">
<path d="M8.04004 2.90039C8.04004 2.34727 7.59316 1.90039 7.04004 1.90039C6.48691 1.90039 6.04004 2.34727 6.04004 2.90039V7.40039H1.54004C0.986914 7.40039 0.540039 7.84727 0.540039 8.40039C0.540039 8.95352 0.986914 9.40039 1.54004 9.40039H6.04004V13.9004C6.04004 14.4535 6.48691 14.9004 7.04004 14.9004C7.59316 14.9004 8.04004 14.4535 8.04004 13.9004V9.40039H12.54C13.0932 9.40039 13.54 8.95352 13.54 8.40039C13.54 7.84727 13.0932 7.40039 12.54 7.40039H8.04004V2.90039Z" fill="white"/>
</svg>
