<svg width="12" height="12" viewBox="0 0 12 12" fill="none" xmlns="http://www.w3.org/2000/svg">
<path d="M0 2.34961C0 1.52227 0.672656 0.849609 1.5 0.849609H10.5C11.3273 0.849609 12 1.52227 12 2.34961V9.84961C12 10.677 11.3273 11.3496 10.5 11.3496H1.5C0.672656 11.3496 0 10.677 0 9.84961V2.34961ZM7.58906 4.8457C7.48359 4.69102 7.31016 4.59961 7.125 4.59961C6.93984 4.59961 6.76406 4.69102 6.66094 4.8457L4.62187 7.83633L4.00078 7.06055C3.89297 6.92695 3.73125 6.84961 3.5625 6.84961C3.39375 6.84961 3.22969 6.92695 3.12422 7.06055L1.62422 8.93555C1.48828 9.1043 1.4625 9.33633 1.55625 9.53086C1.65 9.72539 1.84687 9.84961 2.0625 9.84961H4.3125H5.0625H9.9375C10.1461 9.84961 10.3383 9.73477 10.4344 9.54961C10.5305 9.36445 10.5187 9.1418 10.4016 8.9707L7.58906 4.8457ZM2.625 4.59961C2.92337 4.59961 3.20952 4.48108 3.4205 4.2701C3.63147 4.05913 3.75 3.77298 3.75 3.47461C3.75 3.17624 3.63147 2.89009 3.4205 2.67911C3.20952 2.46814 2.92337 2.34961 2.625 2.34961C2.32663 2.34961 2.04048 2.46814 1.8295 2.67911C1.61853 2.89009 1.5 3.17624 1.5 3.47461C1.5 3.77298 1.61853 4.05913 1.8295 4.2701C2.04048 4.48108 2.32663 4.59961 2.625 4.59961Z" fill="#6B7280"/>
</svg>
