<svg width="14" height="10" viewBox="0 0 14 10" fill="none" xmlns="http://www.w3.org/2000/svg">
<path d="M0.5 2.09961C0.5 1.27227 1.17266 0.599609 2 0.599609H8C8.82734 0.599609 9.5 1.27227 9.5 2.09961V8.09961C9.5 8.92695 8.82734 9.59961 8 9.59961H2C1.17266 9.59961 0.5 8.92695 0.5 8.09961V2.09961ZM13.6039 1.43867C13.8477 1.56992 14 1.82305 14 2.09961V8.09961C14 8.37617 13.8477 8.6293 13.6039 8.76055C13.3602 8.8918 13.0648 8.87773 12.8328 8.72305L10.5828 7.22305L10.25 7.00039V6.59961V3.59961V3.19883L10.5828 2.97617L12.8328 1.47617C13.0625 1.32383 13.3578 1.30742 13.6039 1.43867Z" fill="#6B7280"/>
</svg>
