<svg width="17" height="17" viewBox="0 0 17 17" fill="none" xmlns="http://www.w3.org/2000/svg">
<path d="M5.95317 1.16985C5.71255 0.588595 5.07817 0.27922 4.47192 0.444845L1.72192 1.19485C1.17817 1.34485 0.800049 1.8386 0.800049 2.4011C0.800049 10.1323 7.0688 16.4011 14.8 16.4011C15.3625 16.4011 15.8563 16.023 16.0063 15.4792L16.7563 12.7292C16.9219 12.123 16.6125 11.4886 16.0313 11.248L13.0313 9.99797C12.5219 9.78547 11.9313 9.93235 11.5844 10.3605L10.3219 11.9011C8.12192 10.8605 6.34067 9.07922 5.30005 6.87922L6.84067 5.61985C7.2688 5.26985 7.41567 4.68234 7.20317 4.17297L5.95317 1.17297V1.16985Z" fill="#9CA3AF"/>
</svg>
