<svg width="17" height="17" viewBox="0 0 17 17" fill="none" xmlns="http://www.w3.org/2000/svg">
<path d="M6.55005 1.90039H11.05C11.1875 1.90039 11.3 2.01289 11.3 2.15039V3.40039H6.30005V2.15039C6.30005 2.01289 6.41255 1.90039 6.55005 1.90039ZM4.80005 2.15039V3.40039H2.80005C1.69692 3.40039 0.800049 4.29727 0.800049 5.40039V8.40039H6.80005H10.8H16.8V5.40039C16.8 4.29727 15.9032 3.40039 14.8 3.40039H12.8V2.15039C12.8 1.18477 12.0157 0.400391 11.05 0.400391H6.55005C5.58442 0.400391 4.80005 1.18477 4.80005 2.15039ZM16.8 9.40039H10.8V10.4004C10.8 10.9535 10.3532 11.4004 9.80005 11.4004H7.80005C7.24692 11.4004 6.80005 10.9535 6.80005 10.4004V9.40039H0.800049V13.4004C0.800049 14.5035 1.69692 15.4004 2.80005 15.4004H14.8C15.9032 15.4004 16.8 14.5035 16.8 13.4004V9.40039Z" fill="#9CA3AF"/>
</svg>
