<svg width="13" height="17" viewBox="0 0 13 17" fill="none" xmlns="http://www.w3.org/2000/svg">
<path d="M2.30005 0.400391C1.47192 0.400391 0.800049 1.07227 0.800049 1.90039V14.9004C0.800049 15.7285 1.47192 16.4004 2.30005 16.4004H5.30005V13.9004C5.30005 13.0723 5.97192 12.4004 6.80005 12.4004C7.62817 12.4004 8.30005 13.0723 8.30005 13.9004V16.4004H11.3C12.1282 16.4004 12.8 15.7285 12.8 14.9004V1.90039C12.8 1.07227 12.1282 0.400391 11.3 0.400391H2.30005ZM2.80005 7.90039C2.80005 7.62539 3.02505 7.40039 3.30005 7.40039H4.30005C4.57505 7.40039 4.80005 7.62539 4.80005 7.90039V8.90039C4.80005 9.17539 4.57505 9.40039 4.30005 9.40039H3.30005C3.02505 9.40039 2.80005 9.17539 2.80005 8.90039V7.90039ZM6.30005 7.40039H7.30005C7.57505 7.40039 7.80005 7.62539 7.80005 7.90039V8.90039C7.80005 9.17539 7.57505 9.40039 7.30005 9.40039H6.30005C6.02505 9.40039 5.80005 9.17539 5.80005 8.90039V7.90039C5.80005 7.62539 6.02505 7.40039 6.30005 7.40039ZM8.80005 7.90039C8.80005 7.62539 9.02505 7.40039 9.30005 7.40039H10.3C10.575 7.40039 10.8 7.62539 10.8 7.90039V8.90039C10.8 9.17539 10.575 9.40039 10.3 9.40039H9.30005C9.02505 9.40039 8.80005 9.17539 8.80005 8.90039V7.90039ZM3.30005 3.40039H4.30005C4.57505 3.40039 4.80005 3.62539 4.80005 3.90039V4.90039C4.80005 5.17539 4.57505 5.40039 4.30005 5.40039H3.30005C3.02505 5.40039 2.80005 5.17539 2.80005 4.90039V3.90039C2.80005 3.62539 3.02505 3.40039 3.30005 3.40039ZM5.80005 3.90039C5.80005 3.62539 6.02505 3.40039 6.30005 3.40039H7.30005C7.57505 3.40039 7.80005 3.62539 7.80005 3.90039V4.90039C7.80005 5.17539 7.57505 5.40039 7.30005 5.40039H6.30005C6.02505 5.40039 5.80005 5.17539 5.80005 4.90039V3.90039ZM9.30005 3.40039H10.3C10.575 3.40039 10.8 3.62539 10.8 3.90039V4.90039C10.8 5.17539 10.575 5.40039 10.3 5.40039H9.30005C9.02505 5.40039 8.80005 5.17539 8.80005 4.90039V3.90039C8.80005 3.62539 9.02505 3.40039 9.30005 3.40039Z" fill="#9CA3AF"/>
</svg>
