<svg width="16" height="19" viewBox="0 0 16 19" fill="none" xmlns="http://www.w3.org/2000/svg">
<path d="M10.6875 4.55078C10.6875 3.80486 10.3912 3.08949 9.86374 2.56204C9.33629 2.0346 8.62092 1.73828 7.875 1.73828C7.12908 1.73828 6.41371 2.0346 5.88626 2.56204C5.35882 3.08949 5.0625 3.80486 5.0625 4.55078C5.0625 5.2967 5.35882 6.01207 5.88626 6.53952C6.41371 7.06697 7.12908 7.36328 7.875 7.36328C8.62092 7.36328 9.33629 7.06697 9.86374 6.53952C10.3912 6.01207 10.6875 5.2967 10.6875 4.55078ZM3.375 4.55078C3.375 3.35731 3.84911 2.21271 4.69302 1.3688C5.53693 0.524887 6.68153 0.0507813 7.875 0.0507812C9.06847 0.0507813 10.2131 0.524887 11.057 1.3688C11.9009 2.21271 12.375 3.35731 12.375 4.55078C12.375 5.74426 11.9009 6.88885 11.057 7.73276C10.2131 8.57668 9.06847 9.05078 7.875 9.05078C6.68153 9.05078 5.53693 8.57668 4.69302 7.73276C3.84911 6.88885 3.375 5.74426 3.375 4.55078ZM1.7332 16.3633H14.0168C13.7039 14.1379 11.7914 12.4258 9.48164 12.4258H6.26836C3.95859 12.4258 2.04609 14.1379 1.7332 16.3633ZM0 17.0066C0 13.5437 2.80547 10.7383 6.26836 10.7383H9.48164C12.9445 10.7383 15.75 13.5437 15.75 17.0066C15.75 17.5832 15.2824 18.0508 14.7059 18.0508H1.04414C0.467578 18.0508 0 17.5832 0 17.0066Z" fill="#0A3749"/>
</svg>
