<svg width="18" height="17" viewBox="0 0 18 17" fill="none" xmlns="http://www.w3.org/2000/svg">
<path d="M6.46875 1.73828H11.5312C11.6859 1.73828 11.8125 1.86484 11.8125 2.01953V3.42578H6.1875V2.01953C6.1875 1.86484 6.31406 1.73828 6.46875 1.73828ZM4.5 2.01953V3.42578H2.25C1.00898 3.42578 0 4.43477 0 5.67578V9.05078H6.75H11.25H18V5.67578C18 4.43477 16.991 3.42578 15.75 3.42578H13.5V2.01953C13.5 0.933203 12.6176 0.0507812 11.5312 0.0507812H6.46875C5.38242 0.0507812 4.5 0.933203 4.5 2.01953ZM18 10.1758H11.25V11.3008C11.25 11.923 10.7473 12.4258 10.125 12.4258H7.875C7.25273 12.4258 6.75 11.923 6.75 11.3008V10.1758H0V14.6758C0 15.9168 1.00898 16.9258 2.25 16.9258H15.75C16.991 16.9258 18 15.9168 18 14.6758V10.1758Z" fill="#0A3749"/>
</svg>
