<svg width="16" height="15" viewBox="0 0 16 15" fill="none" xmlns="http://www.w3.org/2000/svg">
<path d="M1.69556 6.60081H1.42993C1.01431 6.60081 0.679932 6.26643 0.679932 5.85081V1.85081C0.679932 1.54768 0.861182 1.27268 1.14243 1.15706C1.42368 1.04143 1.74556 1.10393 1.96118 1.31956L3.26118 2.61956C5.99868 -0.0835652 10.4081 -0.0741901 13.1299 2.65081C15.8643 5.38518 15.8643 9.81643 13.1299 12.5508C10.3956 15.2852 5.96431 15.2852 3.22993 12.5508C2.83931 12.1602 2.83931 11.5258 3.22993 11.1352C3.62056 10.7446 4.25493 10.7446 4.64556 11.1352C6.59868 13.0883 9.76431 13.0883 11.7174 11.1352C13.6706 9.18206 13.6706 6.01643 11.7174 4.06331C9.77368 2.11956 6.63306 2.11018 4.67681 4.03206L5.96118 5.31956C6.17681 5.53518 6.23931 5.85706 6.12368 6.13831C6.00806 6.41956 5.73306 6.60081 5.42993 6.60081H1.69556Z" fill="#6B7280"/>
</svg>
