<svg width="48" height="39" viewBox="0 0 48 39" fill="none" xmlns="http://www.w3.org/2000/svg">
<path d="M48 32.3864V38.4004H0V32.4084C2.7919 28.6773 6.41581 25.6491 10.5836 23.5645C14.7513 21.48 19.348 20.3965 24.008 20.4004C33.816 20.4004 42.528 25.1084 48 32.3864ZM32.004 8.39844C32.004 10.5202 31.1611 12.555 29.6609 14.0553C28.1606 15.5556 26.1257 16.3984 24.004 16.3984C21.8823 16.3984 19.8474 15.5556 18.3471 14.0553C16.8469 12.555 16.004 10.5202 16.004 8.39844C16.004 6.2767 16.8469 4.24187 18.3471 2.74158C19.8474 1.24129 21.8823 0.398438 24.004 0.398438C26.1257 0.398438 28.1606 1.24129 29.6609 2.74158C31.1611 4.24187 32.004 6.2767 32.004 8.39844Z" fill="#D1D5DB"/>
</svg>
