<svg width="12" height="17" viewBox="0 0 12 17" fill="none" xmlns="http://www.w3.org/2000/svg">
<path d="M2 0.5C0.896875 0.5 0 1.39688 0 2.5V14.5C0 15.6031 0.896875 16.5 2 16.5H10C11.1031 16.5 12 15.6031 12 14.5V5.5H8C7.44688 5.5 7 5.05312 7 4.5V0.5H2ZM8 0.5V4.5H12L8 0.5ZM3.5 8.5H8.5C8.775 8.5 9 8.725 9 9C9 9.275 8.775 9.5 8.5 9.5H3.5C3.225 9.5 3 9.275 3 9C3 8.725 3.225 8.5 3.5 8.5ZM3.5 10.5H8.5C8.775 10.5 9 10.725 9 11C9 11.275 8.775 11.5 8.5 11.5H3.5C3.225 11.5 3 11.275 3 11C3 10.725 3.225 10.5 3.5 10.5ZM3.5 12.5H8.5C8.775 12.5 9 12.725 9 13C9 13.275 8.775 13.5 8.5 13.5H3.5C3.225 13.5 3 13.275 3 13C3 12.725 3.225 12.5 3.5 12.5Z" fill="white"/>
</svg>
