<svg width="18" height="21" viewBox="0 0 18 21" fill="none" xmlns="http://www.w3.org/2000/svg">
<path d="M5.875 5.72656V7.60156H12.125V5.72656C12.125 4 10.7266 2.60156 9 2.60156C7.27344 2.60156 5.875 4 5.875 5.72656ZM3.375 7.60156V5.72656C3.375 2.62109 5.89453 0.101562 9 0.101562C12.1055 0.101562 14.625 2.62109 14.625 5.72656V7.60156H15.25C16.6289 7.60156 17.75 8.72266 17.75 10.1016V17.6016C17.75 18.9805 16.6289 20.1016 15.25 20.1016H2.75C1.37109 20.1016 0.25 18.9805 0.25 17.6016V10.1016C0.25 8.72266 1.37109 7.60156 2.75 7.60156H3.375Z" fill="white"/>
</svg>
