<svg width="10" height="15" viewBox="0 0 10 15" fill="none" xmlns="http://www.w3.org/2000/svg">
<path d="M-2.04098e-07 1.79883C-2.04098e-07 1.2457 0.446875 0.798828 1 0.798828H3H3.5H9C9.55313 0.798828 10 1.2457 10 1.79883C10 2.35195 9.55313 2.79883 9 2.79883H7.24375C7.54375 3.24883 7.76562 3.75508 7.89062 4.29883H9C9.55313 4.29883 10 4.7457 10 5.29883C10 5.85195 9.55313 6.29883 9 6.29883H7.8875C7.475 8.1207 5.95312 9.52383 4.06875 9.76445L8.58125 12.9863C9.03125 13.3082 9.13437 13.9332 8.8125 14.3801C8.49063 14.827 7.86562 14.9332 7.41875 14.6113L0.41875 9.61133C0.0656248 9.36133 -0.0843752 8.9082 0.0468748 8.49258C0.178125 8.07695 0.565625 7.79883 1 7.79883H3.5C4.525 7.79883 5.40625 7.1832 5.79063 6.29883H1C0.446875 6.29883 -2.04098e-07 5.85195 -2.04098e-07 5.29883C-2.04098e-07 4.7457 0.446875 4.29883 1 4.29883H5.79063C5.40625 3.41445 4.525 2.79883 3.5 2.79883H3H1C0.446875 2.79883 -2.04098e-07 2.35195 -2.04098e-07 1.79883Z" fill="#9CA3AF"/>
</svg>
