<svg width="15" height="15" viewBox="0 0 15 15" fill="none" xmlns="http://www.w3.org/2000/svg">
<path d="M1.84998 2.39941V12.3994C1.84998 12.6744 2.07498 12.8994 2.34998 12.8994H12.35C12.625 12.8994 12.85 12.6744 12.85 12.3994V4.72754C12.85 4.59629 12.7969 4.46816 12.7031 4.37441L13.7625 3.31504C14.1375 3.69004 14.3469 4.19941 14.3469 4.73066V12.3994C14.3469 13.5025 13.45 14.3994 12.3469 14.3994H2.34998C1.24685 14.3994 0.349976 13.5025 0.349976 12.3994V2.39941C0.349976 1.29629 1.24685 0.399414 2.34998 0.399414H10.0219C10.5531 0.399414 11.0625 0.608789 11.4375 0.983789L13.7656 3.31191L12.7062 4.37129L10.375 2.04629C10.3656 2.03691 10.3594 2.03066 10.35 2.02129V5.14941C10.35 5.56504 10.0156 5.89941 9.59998 5.89941H3.59998C3.18435 5.89941 2.84998 5.56504 2.84998 5.14941V1.89941H2.34998C2.07498 1.89941 1.84998 2.12441 1.84998 2.39941ZM4.34998 1.89941V4.39941H8.84998V1.89941H4.34998ZM5.34998 9.39941C5.34998 8.86898 5.56069 8.36027 5.93576 7.9852C6.31083 7.61013 6.81954 7.39941 7.34998 7.39941C7.88041 7.39941 8.38912 7.61013 8.76419 7.9852C9.13926 8.36027 9.34998 8.86898 9.34998 9.39941C9.34998 9.92985 9.13926 10.4386 8.76419 10.8136C8.38912 11.1887 7.88041 11.3994 7.34998 11.3994C6.81954 11.3994 6.31083 11.1887 5.93576 10.8136C5.56069 10.4386 5.34998 9.92985 5.34998 9.39941Z" fill="white"/>
</svg>
