<svg width="16" height="17" viewBox="0 0 16 17" fill="none" xmlns="http://www.w3.org/2000/svg">
<path d="M13 6.7002C13 8.13457 12.5344 9.45957 11.75 10.5346L15.7063 14.4939C16.0969 14.8846 16.0969 15.5189 15.7063 15.9096C15.3156 16.3002 14.6812 16.3002 14.2906 15.9096L10.3344 11.9502C9.25938 12.7377 7.93437 13.2002 6.5 13.2002C2.90937 13.2002 0 10.2908 0 6.7002C0 3.10957 2.90937 0.200195 6.5 0.200195C10.0906 0.200195 13 3.10957 13 6.7002ZM6.5 11.2002C7.09095 11.2002 7.67611 11.0838 8.22208 10.8577C8.76804 10.6315 9.26412 10.3 9.68198 9.88218C10.0998 9.46431 10.4313 8.96824 10.6575 8.42227C10.8836 7.87631 11 7.29114 11 6.7002C11 6.10925 10.8836 5.52409 10.6575 4.97812C10.4313 4.43215 10.0998 3.93608 9.68198 3.51821C9.26412 3.10035 8.76804 2.76888 8.22208 2.54274C7.67611 2.31659 7.09095 2.2002 6.5 2.2002C5.90905 2.2002 5.32389 2.31659 4.77792 2.54274C4.23196 2.76888 3.73588 3.10035 3.31802 3.51821C2.90016 3.93608 2.56869 4.43215 2.34254 4.97812C2.1164 5.52409 2 6.10925 2 6.7002C2 7.29114 2.1164 7.87631 2.34254 8.42227C2.56869 8.96824 2.90016 9.46431 3.31802 9.88218C3.73588 10.3 4.23196 10.6315 4.77792 10.8577C5.32389 11.0838 5.90905 11.2002 6.5 11.2002Z" fill="#9CA3AF"/>
</svg>
