<svg width="14" height="15" viewBox="0 0 14 15" fill="none" xmlns="http://www.w3.org/2000/svg">
<path d="M13.8197 4.80547C13.9072 5.04336 13.8334 5.30859 13.6447 5.47813L12.4607 6.55547C12.4908 6.78242 12.5072 7.01484 12.5072 7.25C12.5072 7.48516 12.4908 7.71758 12.4607 7.94453L13.6447 9.02187C13.8334 9.19141 13.9072 9.45664 13.8197 9.69453C13.6994 10.0199 13.5545 10.3316 13.3877 10.6324L13.2592 10.8539C13.0787 11.1547 12.8764 11.4391 12.6549 11.707C12.4936 11.9039 12.2256 11.9695 11.985 11.893L10.4619 11.409C10.0955 11.6906 9.69083 11.9258 9.2588 12.1035L8.917 13.6648C8.86231 13.9137 8.67091 14.1105 8.41934 14.1516C8.042 14.2145 7.65372 14.2473 7.25723 14.2473C6.86075 14.2473 6.47247 14.2145 6.09512 14.1516C5.84356 14.1105 5.65216 13.9137 5.59747 13.6648L5.25567 12.1035C4.82364 11.9258 4.41895 11.6906 4.05255 11.409L2.53223 11.8957C2.29161 11.9723 2.02364 11.9039 1.86231 11.7098C1.64083 11.4418 1.43848 11.1574 1.25801 10.8566L1.1295 10.6352C0.962702 10.3344 0.81778 10.0227 0.697468 9.69727C0.609968 9.45938 0.683796 9.19414 0.872468 9.02461L2.05645 7.94727C2.02637 7.71758 2.00997 7.48516 2.00997 7.25C2.00997 7.01484 2.02637 6.78242 2.05645 6.55547L0.872468 5.47813C0.683796 5.30859 0.609968 5.04336 0.697468 4.80547C0.81778 4.48008 0.962702 4.16836 1.1295 3.86758L1.25801 3.64609C1.43848 3.34531 1.64083 3.06094 1.86231 2.79297C2.02364 2.59609 2.29161 2.53047 2.53223 2.60703L4.05528 3.09102C4.42169 2.80938 4.82637 2.57422 5.25841 2.39648L5.6002 0.835156C5.65489 0.586328 5.8463 0.389453 6.09786 0.348437C6.4752 0.282812 6.86348 0.25 7.25997 0.25C7.65645 0.25 8.04473 0.282813 8.42208 0.345703C8.67364 0.386719 8.86505 0.583594 8.91973 0.832422L9.26153 2.39375C9.69356 2.57148 10.0982 2.80664 10.4647 3.08828L11.9877 2.6043C12.2283 2.52773 12.4963 2.59609 12.6576 2.79023C12.8791 3.0582 13.0815 3.34258 13.2619 3.64336L13.3904 3.86484C13.5572 4.16562 13.7022 4.47734 13.8225 4.80273L13.8197 4.80547ZM7.25997 9.4375C7.84013 9.4375 8.39653 9.20703 8.80676 8.7968C9.217 8.38656 9.44747 7.83016 9.44747 7.25C9.44747 6.66984 9.217 6.11344 8.80676 5.7032C8.39653 5.29297 7.84013 5.0625 7.25997 5.0625C6.67981 5.0625 6.12341 5.29297 5.71317 5.7032C5.30294 6.11344 5.07247 6.66984 5.07247 7.25C5.07247 7.83016 5.30294 8.38656 5.71317 8.7968C6.12341 9.20703 6.67981 9.4375 7.25997 9.4375Z" fill="white"/>
</svg>
