<svg width="18" height="15" viewBox="0 0 18 15" fill="none" xmlns="http://www.w3.org/2000/svg">
<path d="M9.0002 0.599609C6.4752 0.599609 4.45332 1.74961 2.98145 3.11836C1.51895 4.47461 0.54082 6.09961 0.0783203 7.21523C-0.0248047 7.46211 -0.0248047 7.73711 0.0783203 7.98398C0.54082 9.09961 1.51895 10.7246 2.98145 12.0809C4.45332 13.4496 6.4752 14.5996 9.0002 14.5996C11.5252 14.5996 13.5471 13.4496 15.0189 12.0809C16.4814 10.7215 17.4596 9.09961 17.9252 7.98398C18.0283 7.73711 18.0283 7.46211 17.9252 7.21523C17.4596 6.09961 16.4814 4.47461 15.0189 3.11836C13.5471 1.74961 11.5252 0.599609 9.0002 0.599609ZM4.5002 7.59961C4.5002 6.40614 4.9743 5.26154 5.81821 4.41763C6.66213 3.57372 7.80672 3.09961 9.0002 3.09961C10.1937 3.09961 11.3383 3.57372 12.1822 4.41763C13.0261 5.26154 13.5002 6.40614 13.5002 7.59961C13.5002 8.79308 13.0261 9.93768 12.1822 10.7816C11.3383 11.6255 10.1937 12.0996 9.0002 12.0996C7.80672 12.0996 6.66213 11.6255 5.81821 10.7816C4.9743 9.93768 4.5002 8.79308 4.5002 7.59961ZM9.0002 5.59961C9.0002 6.70273 8.10332 7.59961 7.0002 7.59961C6.77832 7.59961 6.56582 7.56211 6.36582 7.49648C6.19395 7.44023 5.99395 7.54648 6.0002 7.72773C6.00957 7.94336 6.04082 8.15898 6.1002 8.37461C6.52832 9.97461 8.17519 10.9246 9.7752 10.4965C11.3752 10.0684 12.3252 8.42148 11.8971 6.82148C11.5502 5.52461 10.4033 4.65273 9.12832 4.59961C8.94707 4.59336 8.84082 4.79023 8.89707 4.96523C8.9627 5.16523 9.0002 5.37773 9.0002 5.59961Z" fill="#1F2937"/>
</svg>
