<svg width="41" height="41" viewBox="0 0 41 41" fill="none" xmlns="http://www.w3.org/2000/svg">
<rect x="0.800049" y="0.300781" width="40" height="40" rx="20" fill="#F3F4F6"/>
<path d="M27.5375 12.5777C26.8532 11.8934 25.7469 11.8934 25.0625 12.5777L24.1219 13.5152L27.1813 16.5746L28.1219 15.634C28.8063 14.9496 28.8063 13.8434 28.1219 13.159L27.5375 12.5777ZM18.1875 19.4527C17.9969 19.6434 17.85 19.8777 17.7657 20.1371L16.8407 22.9121C16.75 23.1809 16.8219 23.4777 17.0219 23.6809C17.2219 23.884 17.5188 23.9527 17.7907 23.8621L20.5657 22.9371C20.8219 22.8527 21.0563 22.7059 21.25 22.5152L26.4782 17.284L23.4157 14.2215L18.1875 19.4527ZM15.8 13.8996C14.1438 13.8996 12.8 15.2434 12.8 16.8996V24.8996C12.8 26.5559 14.1438 27.8996 15.8 27.8996H23.8C25.4563 27.8996 26.8 26.5559 26.8 24.8996V21.8996C26.8 21.3465 26.3532 20.8996 25.8 20.8996C25.2469 20.8996 24.8 21.3465 24.8 21.8996V24.8996C24.8 25.4527 24.3532 25.8996 23.8 25.8996H15.8C15.2469 25.8996 14.8 25.4527 14.8 24.8996V16.8996C14.8 16.3465 15.2469 15.8996 15.8 15.8996H18.8C19.3532 15.8996 19.8 15.4527 19.8 14.8996C19.8 14.3465 19.3532 13.8996 18.8 13.8996H15.8Z" fill="#6B7280"/>
</svg>
