<svg width="16" height="17" viewBox="0 0 16 17" fill="none" xmlns="http://www.w3.org/2000/svg">
<path d="M4.75322 1.69344C5.0626 1.97156 5.0876 2.44344 4.80947 2.75281L2.55947 5.25281C2.42197 5.40594 2.22822 5.49656 2.02197 5.49969C1.81572 5.50281 1.61885 5.42469 1.47197 5.28094L0.218848 4.03094C-0.0717774 3.73719 -0.0717774 3.26219 0.218848 2.96844C0.509473 2.67469 0.987598 2.67469 1.27822 2.96844L1.96885 3.65906L3.69072 1.74656C3.96885 1.43719 4.44072 1.41219 4.7501 1.69031L4.75322 1.69344ZM4.75322 6.69344C5.0626 6.97156 5.0876 7.44344 4.80947 7.75281L2.55947 10.2528C2.42197 10.4059 2.22822 10.4966 2.02197 10.4997C1.81572 10.5028 1.61885 10.4247 1.47197 10.2809L0.218848 9.03094C-0.0749023 8.73719 -0.0749023 8.26219 0.218848 7.97156C0.512598 7.68094 0.987598 7.67781 1.27822 7.97156L1.96885 8.66219L3.69072 6.74969C3.96885 6.44031 4.44072 6.41531 4.7501 6.69344H4.75322ZM7.0001 3.49969C7.0001 2.94656 7.44697 2.49969 8.0001 2.49969H15.0001C15.5532 2.49969 16.0001 2.94656 16.0001 3.49969C16.0001 4.05281 15.5532 4.49969 15.0001 4.49969H8.0001C7.44697 4.49969 7.0001 4.05281 7.0001 3.49969ZM7.0001 8.49969C7.0001 7.94656 7.44697 7.49969 8.0001 7.49969H15.0001C15.5532 7.49969 16.0001 7.94656 16.0001 8.49969C16.0001 9.05281 15.5532 9.49969 15.0001 9.49969H8.0001C7.44697 9.49969 7.0001 9.05281 7.0001 8.49969ZM5.0001 13.4997C5.0001 12.9466 5.44697 12.4997 6.0001 12.4997H15.0001C15.5532 12.4997 16.0001 12.9466 16.0001 13.4997C16.0001 14.0528 15.5532 14.4997 15.0001 14.4997H6.0001C5.44697 14.4997 5.0001 14.0528 5.0001 13.4997ZM1.5001 11.9997C1.89792 11.9997 2.27945 12.1577 2.56076 12.439C2.84206 12.7203 3.0001 13.1019 3.0001 13.4997C3.0001 13.8975 2.84206 14.279 2.56076 14.5603C2.27945 14.8417 1.89792 14.9997 1.5001 14.9997C1.10227 14.9997 0.720742 14.8417 0.439437 14.5603C0.158133 14.279 9.76473e-05 13.8975 9.76473e-05 13.4997C9.76473e-05 13.1019 0.158133 12.7203 0.439437 12.439C0.720742 12.1577 1.10227 11.9997 1.5001 11.9997Z" fill="white"/>
</svg>
