<svg width="20" height="17" viewBox="0 0 20 17" fill="none" xmlns="http://www.w3.org/2000/svg">
<path d="M3 4.59961C3 3.53874 3.42143 2.52133 4.17157 1.77118C4.92172 1.02104 5.93913 0.599609 7 0.599609C8.06087 0.599609 9.07828 1.02104 9.82843 1.77118C10.5786 2.52133 11 3.53874 11 4.59961C11 5.66048 10.5786 6.67789 9.82843 7.42804C9.07828 8.17818 8.06087 8.59961 7 8.59961C5.93913 8.59961 4.92172 8.17818 4.17157 7.42804C3.42143 6.67789 3 5.66048 3 4.59961ZM0 15.6715C0 12.5934 2.49375 10.0996 5.57188 10.0996H8.42813C11.5063 10.0996 14 12.5934 14 15.6715C14 16.184 13.5844 16.5996 13.0719 16.5996H0.928125C0.415625 16.5996 0 16.184 0 15.6715ZM19.0406 16.5996H14.7312C14.9 16.3059 15 15.9652 15 15.5996V15.3496C15 13.4527 14.1531 11.7496 12.8188 10.6059C12.8938 10.6027 12.9656 10.5996 13.0406 10.5996H14.9594C17.7437 10.5996 20 12.8559 20 15.6402C20 16.1715 19.5688 16.5996 19.0406 16.5996ZM13.5 8.59961C12.5312 8.59961 11.6562 8.20586 11.0219 7.57148C11.6375 6.74023 12 5.71211 12 4.59961C12 3.76211 11.7938 2.97148 11.4281 2.27773C12.0094 1.85273 12.725 1.59961 13.5 1.59961C15.4344 1.59961 17 3.16523 17 5.09961C17 7.03398 15.4344 8.59961 13.5 8.59961Z" fill="#D97706"/>
</svg>
