<svg width="20" height="17" viewBox="0 0 20 17" fill="none" xmlns="http://www.w3.org/2000/svg">
<path d="M3 4.5C3 3.43913 3.42143 2.42172 4.17157 1.67157C4.92172 0.921427 5.93913 0.5 7 0.5C8.06087 0.5 9.07828 0.921427 9.82843 1.67157C10.5786 2.42172 11 3.43913 11 4.5C11 5.56087 10.5786 6.57828 9.82843 7.32843C9.07828 8.07857 8.06087 8.5 7 8.5C5.93913 8.5 4.92172 8.07857 4.17157 7.32843C3.42143 6.57828 3 5.56087 3 4.5ZM0 15.5719C0 12.4937 2.49375 10 5.57188 10H8.42813C11.5063 10 14 12.4937 14 15.5719C14 16.0844 13.5844 16.5 13.0719 16.5H0.928125C0.415625 16.5 0 16.0844 0 15.5719ZM19.0406 16.5H14.7312C14.9 16.2063 15 15.8656 15 15.5V15.25C15 13.3531 14.1531 11.65 12.8188 10.5063C12.8938 10.5031 12.9656 10.5 13.0406 10.5H14.9594C17.7437 10.5 20 12.7562 20 15.5406C20 16.0719 19.5688 16.5 19.0406 16.5ZM13.5 8.5C12.5312 8.5 11.6562 8.10625 11.0219 7.47188C11.6375 6.64062 12 5.6125 12 4.5C12 3.6625 11.7938 2.87188 11.4281 2.17813C12.0094 1.75312 12.725 1.5 13.5 1.5C15.4344 1.5 17 3.06562 17 5C17 6.93437 15.4344 8.5 13.5 8.5Z" fill="white"/>
</svg>
