<svg width="17" height="17" viewBox="0 0 17 17" fill="none" xmlns="http://www.w3.org/2000/svg">
<path d="M14.61 8.59961C14.61 10.3235 13.9252 11.9768 12.7062 13.1958C11.4872 14.4148 9.83389 15.0996 8.10999 15.0996C6.38608 15.0996 4.73278 14.4148 3.51379 13.1958C2.2948 11.9768 1.60999 10.3235 1.60999 8.59961C1.60999 6.8757 2.2948 5.2224 3.51379 4.00342C4.73278 2.78443 6.38608 2.09961 8.10999 2.09961C9.83389 2.09961 11.4872 2.78443 12.7062 4.00342C13.9252 5.2224 14.61 6.8757 14.61 8.59961ZM0.109985 8.59961C0.109985 10.7213 0.95284 12.7562 2.45313 14.2565C3.95342 15.7568 5.98825 16.5996 8.10999 16.5996C10.2317 16.5996 12.2665 15.7568 13.7668 14.2565C15.2671 12.7562 16.11 10.7213 16.11 8.59961C16.11 6.47788 15.2671 4.44305 13.7668 2.94276C12.2665 1.44246 10.2317 0.599609 8.10999 0.599609C5.98825 0.599609 3.95342 1.44246 2.45313 2.94276C0.95284 4.44305 0.109985 6.47788 0.109985 8.59961ZM7.35999 4.34961V8.59961C7.35999 8.84961 7.48499 9.08398 7.69436 9.22461L10.6944 11.2246C11.0381 11.4559 11.5037 11.3621 11.735 11.0152C11.9662 10.6684 11.8725 10.2059 11.5256 9.97461L8.85999 8.19961V4.34961C8.85999 3.93398 8.52561 3.59961 8.10999 3.59961C7.69436 3.59961 7.35999 3.93398 7.35999 4.34961Z" fill="#0A3749"/>
</svg>
