<svg width="20" height="21" viewBox="0 0 20 21" fill="none" xmlns="http://www.w3.org/2000/svg">
<path d="M18.125 10.3008C18.125 12.4557 17.269 14.5223 15.7452 16.046C14.2215 17.5698 12.1549 18.4258 10 18.4258C7.84512 18.4258 5.77849 17.5698 4.25476 16.046C2.73102 14.5223 1.875 12.4557 1.875 10.3008C1.875 8.1459 2.73102 6.07927 4.25476 4.55554C5.77849 3.03181 7.84512 2.17578 10 2.17578C12.1549 2.17578 14.2215 3.03181 15.7452 4.55554C17.269 6.07927 18.125 8.1459 18.125 10.3008ZM0 10.3008C0 12.9529 1.05357 15.4965 2.92893 17.3718C4.8043 19.2472 7.34784 20.3008 10 20.3008C12.6522 20.3008 15.1957 19.2472 17.0711 17.3718C18.9464 15.4965 20 12.9529 20 10.3008C20 7.64862 18.9464 5.10508 17.0711 3.22971C15.1957 1.35435 12.6522 0.300781 10 0.300781C7.34784 0.300781 4.8043 1.35435 2.92893 3.22971C1.05357 5.10508 0 7.64862 0 10.3008ZM9.0625 4.98828V10.3008C9.0625 10.6133 9.21875 10.9062 9.48047 11.082L13.2305 13.582C13.6602 13.8711 14.2422 13.7539 14.5312 13.3203C14.8203 12.8867 14.7031 12.3086 14.2695 12.0195L10.9375 9.80078V4.98828C10.9375 4.46875 10.5195 4.05078 10 4.05078C9.48047 4.05078 9.0625 4.46875 9.0625 4.98828Z" fill="#486FB7"/>
</svg>
