<svg width="16" height="17" viewBox="0 0 16 17" fill="none" xmlns="http://www.w3.org/2000/svg">
<path d="M8 16.5996C10.1217 16.5996 12.1566 15.7568 13.6569 14.2565C15.1571 12.7562 16 10.7213 16 8.59961C16 6.47788 15.1571 4.44305 13.6569 2.94276C12.1566 1.44246 10.1217 0.599609 8 0.599609C5.87827 0.599609 3.84344 1.44246 2.34315 2.94276C0.842855 4.44305 0 6.47788 0 8.59961C0 10.7213 0.842855 12.7562 2.34315 14.2565C3.84344 15.7568 5.87827 16.5996 8 16.5996ZM11.5312 7.13086L7.53125 11.1309C7.2375 11.4246 6.7625 11.4246 6.47188 11.1309L4.47188 9.13086C4.17813 8.83711 4.17813 8.36211 4.47188 8.07148C4.76562 7.78086 5.24062 7.77773 5.53125 8.07148L7 9.54023L10.4688 6.06836C10.7625 5.77461 11.2375 5.77461 11.5281 6.06836C11.8187 6.36211 11.8219 6.83711 11.5281 7.12773L11.5312 7.13086Z" fill="#16A34A"/>
</svg>
