<svg width="17" height="16" viewBox="0 0 17 16" fill="none" xmlns="http://www.w3.org/2000/svg">
<path d="M9.80005 3.41484V10.9992C9.80005 11.5523 9.35317 11.9992 8.80005 11.9992C8.24692 11.9992 7.80005 11.5523 7.80005 10.9992V3.41484L5.5063 5.70859C5.11567 6.09922 4.4813 6.09922 4.09067 5.70859C3.70005 5.31797 3.70005 4.68359 4.09067 4.29297L8.09067 0.292969C8.4813 -0.0976562 9.11567 -0.0976562 9.5063 0.292969L13.5063 4.29297C13.8969 4.68359 13.8969 5.31797 13.5063 5.70859C13.1157 6.09922 12.4813 6.09922 12.0907 5.70859L9.80005 3.41484ZM2.80005 10.9992H6.80005C6.80005 12.1023 7.69692 12.9992 8.80005 12.9992C9.90317 12.9992 10.8 12.1023 10.8 10.9992H14.8C15.9032 10.9992 16.8 11.8961 16.8 12.9992V13.9992C16.8 15.1023 15.9032 15.9992 14.8 15.9992H2.80005C1.69692 15.9992 0.800049 15.1023 0.800049 13.9992V12.9992C0.800049 11.8961 1.69692 10.9992 2.80005 10.9992ZM14.3 14.2492C14.499 14.2492 14.6897 14.1702 14.8304 14.0295C14.971 13.8889 15.05 13.6981 15.05 13.4992C15.05 13.3003 14.971 13.1095 14.8304 12.9689C14.6897 12.8282 14.499 12.7492 14.3 12.7492C14.1011 12.7492 13.9104 12.8282 13.7697 12.9689C13.6291 13.1095 13.55 13.3003 13.55 13.4992C13.55 13.6981 13.6291 13.8889 13.7697 14.0295C13.9104 14.1702 14.1011 14.2492 14.3 14.2492Z" fill="#0A3749"/>
</svg>
