<svg width="17" height="14" viewBox="0 0 17 14" fill="none" xmlns="http://www.w3.org/2000/svg">
<path d="M8.60004 0C9.04379 0 9.45317 0.234375 9.67817 0.61875L16.4282 12.1187C16.6563 12.5062 16.6563 12.9844 16.4344 13.3719C16.2125 13.7594 15.7969 14 15.35 14H1.85004C1.40317 14 0.987543 13.7594 0.765668 13.3719C0.543793 12.9844 0.546918 12.5031 0.771918 12.1187L7.52192 0.61875C7.74692 0.234375 8.15629 0 8.60004 0ZM8.60004 4C8.18442 4 7.85004 4.33437 7.85004 4.75V8.25C7.85004 8.66562 8.18442 9 8.60004 9C9.01567 9 9.35004 8.66562 9.35004 8.25V4.75C9.35004 4.33437 9.01567 4 8.60004 4ZM9.60004 11C9.60004 10.7348 9.49469 10.4804 9.30715 10.2929C9.11961 10.1054 8.86526 10 8.60004 10C8.33483 10 8.08047 10.1054 7.89294 10.2929C7.7054 10.4804 7.60004 10.7348 7.60004 11C7.60004 11.2652 7.7054 11.5196 7.89294 11.7071C8.08047 11.8946 8.33483 12 8.60004 12C8.86526 12 9.11961 11.8946 9.30715 11.7071C9.49469 11.5196 9.60004 11.2652 9.60004 11Z" fill="#DC2626"/>
</svg>
