<svg width="15" height="15" viewBox="0 0 15 15" fill="none" xmlns="http://www.w3.org/2000/svg">
<path d="M13.2354 1.34365C12.6366 0.744824 11.6686 0.744824 11.0698 1.34365L10.2467 2.16396L12.9237 4.84092L13.7467 4.01787C14.3456 3.41904 14.3456 2.45107 13.7467 1.85225L13.2354 1.34365ZM5.05415 7.35928C4.88735 7.52607 4.75884 7.73115 4.68501 7.95811L3.87563 10.3862C3.79634 10.6214 3.85923 10.8812 4.03423 11.0589C4.20923 11.2366 4.46899 11.2968 4.70688 11.2175L7.13501 10.4081C7.35923 10.3343 7.56431 10.2058 7.73384 10.039L12.3084 5.46162L9.62876 2.78193L5.05415 7.35928ZM2.96509 2.50029C1.51587 2.50029 0.340088 3.67607 0.340088 5.12529V12.1253C0.340088 13.5745 1.51587 14.7503 2.96509 14.7503H9.96509C11.4143 14.7503 12.5901 13.5745 12.5901 12.1253V9.50029C12.5901 9.01631 12.1991 8.62529 11.7151 8.62529C11.2311 8.62529 10.8401 9.01631 10.8401 9.50029V12.1253C10.8401 12.6093 10.4491 13.0003 9.96509 13.0003H2.96509C2.4811 13.0003 2.09009 12.6093 2.09009 12.1253V5.12529C2.09009 4.64131 2.4811 4.25029 2.96509 4.25029H5.59009C6.07407 4.25029 6.46509 3.85928 6.46509 3.37529C6.46509 2.89131 6.07407 2.50029 5.59009 2.50029H2.96509Z" fill="white"/>
</svg>
